<svg xmlns="http://www.w3.org/2000/svg" aria-hidden="true" overflow="hidden" style="position:absolute;width:0;height:0">
  <defs>
    <symbol id="icon-footer-logo-signature" viewBox="0 0 139 32">
      <path d="M3.183 31.574c8.263 0 21.784-7.261 25.54-15.449 1.277-4.307-1.478-5.734-5.233-5.734-1.527 0-3.18.226-4.833.601-.451.1-.726.175-.801.175-.025 0-.025 0-.025-.025.025-.025.301-.2.826-.526 6.285-4.182 9.089-7.312 9.615-9.065.325-1.026-.15-1.552-1.177-1.552-3.105 0-11.268 5.058-17.502 17.052l-.025.025c-.1 0 .075-.651.376-1.653.475-1.552 1.277-3.931 1.928-6.109.826-2.729 1.452-5.108.951-5.108l-.15.025c-1.502 0-5.534 7.562-6.184 9.014l-.226.576c-.1.35-.1.526 0 .526.15 0 .501-.451.851-1.202 1.628-3.28 3.656-6.585 5.259-8.313-.276 1.678-4.131 13.471-3.956 14.147-.275 1.126-.05 1.477.251 1.477.225 0 .501-.225.576-.475.05-.15 0-.326-.175-.451C13.451 8.313 24.042.401 26.896.401c.601 0 .851.35.626 1.127-.15.476-.476 1.077-1.027 1.878-2.203 2.754-5.884 5.483-9.49 7.536-.826.476-1.527.902-1.577.951-.075.3 0 .376.226.376.3 0 .876-.226 1.477-.351 1.953-.651 3.981-1.002 5.759-1.002 3.656 0 6.335 1.453 5.333 4.732-.35 1.102-1.102 2.404-2.353 3.932-4.532 5.383-14.147 10.541-20.182 11.367-.626.05-1.177.075-1.678.075-2.83 0-3.656-.926-3.23-2.279 1.127-3.706 11.568-10.617 16.05-10.617.951 0 1.753.351 1.678 1.127-.025.226.1.351.25.351.125 0 .276-.1.326-.276a.6.6 0 0 0 0-.3c-.351-.926-1.202-1.327-2.379-1.327-4.933 0-15.324 6.986-16.576 11.067-.451 1.427.251 2.504 2.679 2.804h.376zm27.253-4.582c.3 0 .651-.25.726-.451.025-.125-.025-.226-.175-.276-.576-.476.601-4.582.976-6.385l.251-.876c.125-.426.2-.551.3-.676.701-.726 4.206-6.911 5.959-11.067.2-.476.451-1.101.626-1.678.276-.826.351-1.653-.375-1.678-1.377 0-3.881 6.059-5.283 9.364a103.19 103.19 0 0 0-1.903 5.534c-1.002 3.255-1.778 6.686-1.352 8.113.075.05.15.075.251.075zm2.353-9.89v-.05c.175-.551 1.252-3.405 1.778-4.682 1.903-4.482 3.08-7.136 4.182-8.013.05.251-.025.651-.175 1.152-.826 2.679-5.609 11.593-5.784 11.593zm3.816 5.408c1.252 0 3.956-3.28 4.082-3.28l-.125.676c-.276 1.277.125 1.728.801 1.728 1.152 0 3.055-1.227 3.756-1.928.025-.125 0-.175-.1-.175-.15 0-.401.125-.701.325-1.002.651-2.404 1.352-2.779 1.352-.926 0 .35-2.905-.451-2.905-.376 0-.877.726-1.002.726-.05 0-.05-.05-.025-.175.1-1.077-.125-1.477-.526-1.477-1.002 0-2.955 2.528-3.431 4.006-.225.751.05 1.127.501 1.127zm.251-.601c-.15 0-.175-.15-.075-.551.1-.301.3-.751.626-1.377.977-1.377 1.603-2.128 1.928-2.128.3 0 .325.626.125 1.903-.901.926-2.153 2.153-2.604 2.153zm10.576 2.479c.676 0 1.628-.451 2.855-1.352.826-.701 3.155-2.629 3.33-3.28.05-.1 0-.2-.125-.2-.175 0-.376.175-1.227 1.027-1.628 1.678-2.504 2.329-3.706 2.98-.325.2-.601.3-.801.3-.951 0-.776-1.853-.4-3.13l.175-.501c.351-.801 2.003-4.156 2.779-4.156.125 0 .225.1.3.275.125.226-.025 1.127-.225 1.753-.175.551-.175.476-.325.751-.025.125 0 .2.075.2.15 0 .451-.25.601-.651.1-.226.175-.451.251-.676.35-1.102.225-2.028-.325-2.154-1.527.075-3.18 2.855-3.906 5.284-.526 1.727-.601 3.28.225 3.43.125.05.276.1.451.1zm6.37 3.255c.2 0 .551-.275.877-.826.576-.976 2.454-4.332 2.729-4.432.15-.025.826-.426 1.127-.426.075 0 .125.025.125.075.776.501 1.477.801 2.229.801 1.077 0 2.253-.601 3.906-1.978.601-.451.877-.776.926-.952.025-.075 0-.125-.075-.125-.175 0-.526.2-.977.601-1.728 1.352-2.704 1.978-3.631 1.978-.626 0-1.252-.275-2.078-.801 1.803-1.352 4.432-4.131 4.782-5.258.125-.426-.05-.651-.401-.651-1.753 0-6.36 5.759-8.288 9.265.401-1.728 1.277-4.557 1.878-6.636 2.529-3.831 5.559-9.439 6.46-12.344.426-1.427.325-1.903-.2-1.928-2.178 0-5.408 8.714-7.437 15.274-.751 2.504-1.352 4.708-1.628 5.984-.375 1.452-.726 2.379-.325 2.379zm3.631-10.942l.15-.451c0-.025 3.931-11.643 5.358-11.643.1 0 .125.25-.15 1.152-.526 1.727-2.103 5.408-5.358 10.942zm.676 4.683c-.025 0-.05 0-.025-.025 0-.05.025-.1.1-.175 1.002-1.377 3.931-4.607 4.908-4.983-.726 1.953-4.682 5.183-4.983 5.183zM105.028 32c.876 0 1.628-.25 2.178-.851-.025-.075-.05-.1-.15-.1-.226 0-1.102.401-2.028.401-4.407 0-9.74-5.759-13.296-6.26-.551-.125-1.177-.175-1.828-.175-1.302 0-2.73.226-3.906.751 2.254-3.38 8.088-14.197 10.141-20.933.676-2.229.901-3.731.576-4.732-.125.05-.351.376-.426.626-.05.501.05.951-.751 3.581-.951 3.13-2.779 7.912-5.133 12.419-2.204 4.257-3.906 7.537-6.185 9.965-1.828 1.077-3.856 3.08-4.182 4.182-.1.375-.05.626.251.626.125 0 .3-.05.526-.15.801-.35 3.28-3.105 4.457-4.732 1.753-.776 3.205-1.126 4.507-1.126 2.429 0 4.382 1.177 6.986 2.879 2.153 1.452 5.684 3.631 8.263 3.631zM80.79 30.648c-.025 0-.025-.025-.025-.1.125-.351 1.302-1.778 3.305-3.205-2.028 2.353-3.03 3.305-3.28 3.305zm21.919-6.635c.951 0 2.128-1.803 2.729-2.855l.325-.576c.05-.025 1.828-.226 2.855-.325.125-.025.2-.15.225-.276.05-.1.025-.2-.075-.2-1.202.075-1.653.15-2.554.251-.125 0-.15-.025-.1-.125.075-.275.25-.626.576-1.527.526-1.753.376-3.581-1.277-3.581-.15 0-.276 0-.426.025-1.778.226-4.407 2.704-4.958 4.457-.3 1.002.075 1.752 1.653 1.752.476 0 .451 0 .926-.05l-.15.501c-.275.901-.601 2.128-.275 2.328.15.15.325.2.526.2zm.075-.476h-.025c-.35 0 .276-2.079.451-2.629.35-.025 1.803-.251 1.878-.251l-.376.701c-.651 1.002-1.202 1.853-1.928 2.179zm-.876-3.03c-.801 0-1.552-.25-1.277-1.177.526-1.678 3.13-4.006 4.632-4.006 1.052 0 1.377.926.751 3.18-.2.676-.551 1.527-.651 1.603-.025.025-1.727.275-1.903.275-.05 0-.025-.05 0-.2l.3-.776c.075-.276-.025-.226-.225-.251-.15 0-.251.175-.501.701-.15.3-.251.576-.276.576-.25.05-.551.075-.851.075zm13.957-11.118h-.701c.234-.631.428-1.093.636-1.548l-.06.147c.476-1.027.851-1.728 1.152-2.079l.05-.025s0 .1-.025.325c-.025.226-.1.576-.25 1.052-.31.932-.581 1.637-.877 2.328l.076-.2zm-.977.627h.701a46.295 46.295 0 0 1-2.028 4.081c-.351.701-.551 1.052-.601 1.052-.025 0-.025-.075.025-.2l.2-.601c.05-.1.075-.226.15-.376.25-.676.601-1.577 1.052-2.729.175-.426.325-.826.501-1.227zm1.252 0c2.754.05 5.383.075 7.862.1 2.954.05 5.058.1 6.31.125.1 0 .2-.025.276-.1s.1-.15.125-.226a.27.27 0 0 0 0-.202l.001.002c-.025-.05-.075-.075-.15-.1-2.279-.025-5.283-.05-8.989-.125-1.778-.025-3.506-.075-5.158-.1.254-.565.543-1.32.798-2.09l.054-.189c.175-.576.25-1.027.275-1.377 0-.351-.125-.526-.35-.526l-.25.05c-.426 0-1.177 1.277-2.254 3.831-.05.1-.1.175-.125.276-2.905-.025-5.609-.05-8.088-.05l-4.382.025a.267.267 0 0 0-.175.075c-.05.075-.1.125-.125.2s-.025.125 0 .175c.05.05.1.075.175.075h.601c.125 0 .526 0 1.227.025h2.354c2.304.025 5.033.075 8.138.1a95.11 95.11 0 0 0-2.629 7.462c-.576 1.928-1.052 3.756-1.427 5.484s-.551 3.155-.526 4.257c0 1.102.3 1.653.901 1.653.501 0 1.052-.376 1.653-1.127.601-.726 1.202-1.627 1.803-2.654.406-.664.938-1.623 1.445-2.597l.157-.332c.451-.926.776-1.627.977-2.103.05-.15.075-.251.075-.325.025-.075.025-.1-.025-.125-.025-.025-.075-.025-.125-.025-.075 0-.125 0-.15.025s-.075.075-.1.15c-.05.075-.1.2-.175.375v.025c-.075.1-.2.325-.376.701a83.325 83.325 0 0 1-1.819 3.419l.292-.565a45.094 45.094 0 0 1-1.903 3.205c-.651.977-1.127 1.452-1.477 1.452s-.501-.401-.501-1.202c.025-.801.125-1.778.325-2.954s.451-2.329.726-3.506c.276-1.177.526-2.153.751-2.954.175-.676.276-1.052.3-1.177l.025-.025c.676-.877 1.527-2.304 2.579-4.307.222-.396.582-1.119.927-1.85l.15-.353zm2.664 12.519c1.377 0 4.733-3.105 5.734-3.681-.05.325-.1.676-.075 1.027.05 1.277.826 1.678 1.778 1.678 1.577 0 3.706-1.152 3.881-1.427l.075-.15c.05-.175-.025-.275-.15-.275-.1 0-.226.05-.351.15-.401.325-2.053 1.176-3.255 1.176-.751 0-1.327-.35-1.252-1.377.025-.726.2-1.427-.326-1.502-.175 0-.676.325-2.654 1.803-2.379 1.803-2.905 2.103-3.18 2.103-.325 0-.276-.651-.05-1.402.326-1.002.926-2.229 1.377-2.654.05.05.1.075.15.075.075 0 .15-.1.2-.2.05-.251 0-.576-.225-.576-.501 0-1.628 1.953-2.053 3.331-.375 1.252-.3 1.828.376 1.903zm7.447 4.683c2.178 0 4.933-1.277 7.211-2.804 1.628-1.052 2.704-2.053 2.929-2.829.251-.751-.325-1.302-1.903-1.527.901-.401 3.055-1.327 3.731-1.327l.2.025c.125 0 .225-.05.25-.15.05-.125-.1-.325-.451-.325l-.276.025c-.801 0-3.03 1.002-4.357 1.678-.926-.2-3.105-.025-2.829-.926.05-.15.175-.325.375-.551.251-.3 2.204-1.878 2.855-1.878.175 0 .225.15.3.15.15 0 .15-.125.275-.351.075-.226-.025-.325-.225-.325-.501 0-1.653.626-2.454 1.227-.977.701-1.427 1.252-1.578 1.678-.25.851.877 1.202 2.128 1.277.15 0 .276.025.276.075-2.479 1.602-7.086 4.131-7.612 5.809-.1.401 0 .726.376 1.002.25.05.501.05.776.05zm-.05-.451c-.426 0-.651-.125-.551-.451.125-.375.676-1.002 1.853-1.953 1.002-.776 5.408-3.856 6.61-3.881 1.577.251 2.003.476 1.853.977-.125.426-.726 1.027-1.803 1.853-1.302 1.327-6.26 3.455-7.962 3.455z"/>
    </symbol>
    <symbol id="icon-header-logo-full" viewBox="0 0 88 32">
      <path d="M63.03 21.702c-1.167.688-1.727.048-1.199-1.168 1.055-2.416 2.798-5.456 4.588-7.744.272-.32.623-.24 1.023.24.304.416.192.512-.192.976-.592.704-1.199 1.52-1.966 2.72-.608.96-1.823 2.816-2.126 3.76.847-.416 1.439-.528 1.839-.56 1.007-.08 1.982-.032 2.686.688.64.64-.512 1.216-1.327.72-.208-.128-.496-.288-1.343-.24-.416.032-1.055.08-1.983.608zm5.579-2.784c.32-.608.879-1.2 1.551-1.632.656-.384 1.359-.496 1.998-.32.975.288 1.311 1.504.735 2.688-.288.576-.719 1.152-1.247 1.536-.943.672-2.03.896-2.798.416-.671-.448-.783-1.632-.24-2.688zm1.183 1.712c.56.288 1.503-.368 1.902-1.28.208-.464.352-1.2-.224-1.328-.592-.144-1.391.368-1.775 1.392-.112.288-.288 1.008.096 1.216zm8.389-6.704l-.496.592c-.304.384-.608.768-.879 1.152.24-.032.544-.064 1.007-.096.24-.032.416.096.208.576-.064.144-.32.592-.879.56-.56 0-.815 0-1.039.016-.672 1.04-1.103 1.92-1.231 2.24-.352.88-.544 1.328-.192 1.616.464.384 2.078-.864 2.782-1.616.448-.336.751.272.224.88-.144.16-.4.496-.783.8-1.903 1.504-3.038 1.408-3.501.64-.687-1.152.288-2.768 1.247-4.432-.064 0-.16.016-.256.032-.24.032-.384-.288-.32-.56.048-.192.128-.368.304-.4l.895-.144c.815-1.328 1.903-2.752 2.398-2.704.272.048.927.352.512.848zm3.879 6.288c.576-.4.976.176.512.64l-.16.176c-.624.576-1.279.832-1.839.784-.496-.048-.815-.4-.879-.896-.512.64-1.311.896-1.871.912-.272 0-.592-.048-.944-.32-.575-.448-.464-1.296-.304-1.728.192-.544 1.007-2.128 1.263-2.608.128-.272.448-.352.895 0 .496.384.208.768-.112 1.232-.736 1.072-.959 1.84-.751 2.144.224.352.943-.064 1.359-.448.608-.56 1.055-1.648 1.295-2.128.192-.448.16-.752.368-.816.512-.208 1.247.624 1.039.944.016.048-.704 1.088-.991 1.984-.192.592.288.608.608.448.08-.032.352-.192.511-.32zm4.731-2.672c.208.368.192.832-.048 1.072a1.17 1.17 0 0 1-.863.336c-.32-.016-.576-.16-.592-.4-.016-.256.24-.368.576-.432.192-.032.048-.304-.272-.352-.368-.048-.576.016-.672.064-.4.192-.48.512-.432.704.032.112.08.304.512.624.656.48.959.784 1.055 1.072.224.704-.496 1.504-1.727 1.6-.847.064-1.982-.256-2.254-1.28-.128-.464 0-.848.256-1.104a.712.712 0 0 1 .496-.224c.224 0 .4.16.416.4a.67.67 0 0 1-.016.256c-.336.544.336.944.943.864.336-.048.528-.176.48-.448-.016-.112-.048-.224-.432-.496-.48-.336-.959-.752-1.055-1.152-.144-.832.672-1.488 1.231-1.68 1.183-.336 2.046.032 2.398.576zM.154 20.086c-.048-.432.16-.688.608-.768.416-.016.639.16.671.512.064 1.152 2.19 1.36 3.581.704 1.071-.56 1.759-1.28 1.807-2.32 0-.48-.144-.736-.448-.864.032.016-.592-.208-.703-.256-.272-.112-.352-.496-.016-.656l.144-.048c1.567-.528 2.19-1.232 2.19-1.872.016-.24-.032-.816-.927-1.008-.08 0-.256 0-.352.144-.24.4-.464.752-.703 1.104a46.948 46.948 0 0 0-1.407 2.368c-.767 1.296-.975 1.744-1.151 2.112-.096.192-.144.32-.24.464-.24.368-1.455-.224-1.183-.768.192-.336.288-.416.448-.656.192-.32.48-.752.943-1.52.687-1.072 1.567-2.576 1.567-2.608.208-.368.08-.384-.144-.304a3.128 3.128 0 0 0-1.023.608c-.08.096-.208.208-.352.336-.48.336-1.039-.416-.32-1.072.783-.704 1.535-1.04 2.782-1.184 1.886-.224 3.309.512 3.229 2.064-.032.624-.576 1.408-1.311 1.856-.24.144-.304.192-.4.24.352.16.735.448.767 1.296.048 1.44-.943 2.8-2.67 3.6-2.014.944-5.292.432-5.388-1.504zm12.963-1.376c.448-.336 1.055-.304.592.4-.176.272-.703.96-1.071 1.312-1.807 1.728-3.437 1.712-4.045.832-.687-1.008.16-2.896 1.215-4.704.863-1.472 2.798-4.192 3.741-4.064.879.144 1.535 2.64.687 3.264-.831.624-3.981 2.656-4.205 3.2-.448.8-.512 1.312-.208 1.552.416.336 1.503-.176 2.126-.656a7.19 7.19 0 0 0 1.167-1.136zm.288-4.928c-1.295 1.216-2.59 3.296-2.59 3.376 0 .096 2.59-1.696 2.718-2.08.192-.528-.032-.928-.128-1.296zm3.794 6.544c.895-.592.927.464.208.944-.352.256-.576.384-.943.496-.448.128-.895.048-1.167-.144a.71.71 0 0 1-.288-.464 1.85 1.85 0 0 1-1.823.656c-1.167-.224-1.135-1.648-.879-2.32.735-1.888 2.078-2.4 2.558-2.528.863-.224 1.519.096 1.679.24.592.528.096 1.52-.576 1.184-.4-.208-.432-.576-1.199-.24-.256.112-.943.656-1.167 1.344-.128.384-.272 1.072.24 1.216.272.08.687 0 1.311-.752.304-.368.4-.864.496-.992.368-.592 1.439.016 1.247.4-.016.048-.144.192-.368.528-.208.288-.32.704-.128.768.144.048.48-.128.799-.336zm4.726-2.848c.272.848-.847 1.52-.847.944-.032-.32-.224-.368-.528-.368-.56 0-1.119.432-1.487 1.056-.352.592-.368 1.184-.032 1.472.24.208 1.039.272 1.711-.08.703-.368 1.055-.8 1.215-.832.24-.048.56.32.464.56s-.927.976-1.679 1.312c-.847.384-2.174.48-2.718.032-.56-.448-.863-1.248-.128-2.688 1.231-2.064 2.91-2.128 3.485-1.92.32.112.464.288.544.512zm-.384 4c-.336-.752.703-3.168 1.759-4.976.863-1.472 2.878-4.16 3.709-4.032.879.144 1.471 2.608.624 3.232-.911.64-1.663 1.152-2.27 1.568.496-.208 1.055-.336 1.471.112.448.48.24 1.184.032 1.504-.416.64-1.519 1.2-2.222 1.104-.192.544 0 .848.624.8.576-.048 1.423-.688 1.998-1.28.224-.24.975.128.48.656-.176.192-.72.72-1.183 1.072-.432.336-1.599.928-2.542.464-.656-.32-.703-1.088-.496-1.728.272-.72 2.59-.784 2.254-1.696-.304-.848-1.775.016-2.638 1.264-.304.736-.576 1.648-.672 2.144-.288.416-.831-.032-.927-.208zm2.67-4.368c0 .096 2.59-1.696 2.718-2.08.192-.528-.032-.928-.128-1.296-1.295 1.216-2.59 3.296-2.59 3.376zM45.025 8.175a10.953 10.953 0 0 1-1.598-.224c-.921-.196-1.623-.556-1.545-1.639C42.033 4.204 43 2.405 44.485.971c.34-.329.83-.184 1.154.084 1.329 1.097 2.185 2.396 2.57 3.898.187.727-.526 1.196-1.147.828-.122-.073-.229-.293-.267-.428-.293-1.07-.861-2.001-1.703-2.793a.042.042 0 0 0-.03-.012c-.005 0-.011.002-.016.004s-.01.006-.013.01c-.922 1.047-1.561 2.302-1.658 3.681-.011.147.057.231.203.251.944.131 1.876.257 2.796.378.6.08 1.458.378 1.516 1.05.084.973-.745 1.332-1.542 1.549-.449.123-.86.211-1.233.264-.106.015-.106.032 0 .049.331.052.651.119.959.201.853.227.936 1.035.505 1.678-.235.348-.54.705-.916 1.069-.145.141-.284.25-.418.326a.732.732 0 0 1-1.053-.389c-.212-.619.365-.945.728-1.326.047-.048.037-.077-.03-.086-.555-.07-1.143-.17-1.645-.452-.678-.382-.809-1.275-.224-1.806.472-.43 1.338-.584 2.009-.728.234-.05.232-.082-.007-.096zM40.778 11.479c.541-.499 1.657-1.21 2.175-.2.311.61.298 1.532.243 2.215-.074.937-1.407.998-1.464.039a5.99 5.99 0 0 1 .016-.896c.005-.06-.015-.069-.059-.029a4.256 4.256 0 0 1-1.261.812c-.465.197-.882.169-1.252-.085-.708-.486-.447-1.335-.094-1.984.226-.418.459-.77.698-1.057v-.004l-.02-.025c-.008-.011-.017-.011-.027-.002-.71.612-1.329 1.057-1.855 1.337-.596.316-1.227.344-1.725-.172-1.447-1.503-2.076-3.615-2.064-5.687.003-.453.225-.713.666-.778 1.628-.242 3.4.051 4.843.922a.653.653 0 0 1 .313.435c.151.697-.532 1.165-1.137.799-.84-.507-1.827-.757-2.961-.752a.696.696 0 0 1-.157-.015c-.044-.009-.064.009-.061.053.078 1.149.375 2.16.89 3.032.182.31.393.586.632.827.032.032.068.037.108.013.355-.212.652-.417.89-.616a22.086 22.086 0 0 1 1.732-1.332c.402-.271.972-.455 1.49-.206.469.225.593.88.466 1.338-.209.749-.648 1.344-1.055 1.993-.054.086-.044.094.03.025zM49.364 11.688c.492.555 1.211 1.662.194 2.179-.61.31-1.486.29-2.175.247-1.04-.063-1.045-1.524.114-1.482.229.008.46.015.693.021.055.002.064-.019.028-.061a4.75 4.75 0 0 1-.779-1.207c-.204-.465-.192-.882.035-1.251.717-1.16 2.378.019 3.078.538.003.002.007.004.012.003s.008-.002.011-.005.005-.007.005-.011a.015.015 0 0 0-.004-.011c-.32-.393-.616-.772-.888-1.137a4.156 4.156 0 0 1-.6-1.111c-.174-.507-.052-.989.343-1.362 1.538-1.451 3.635-2.064 5.724-2.042.481.005.701.371.747.799.176 1.639-.105 3.559-1.079 4.878a.237.237 0 0 1-.082.069c-.495.233-1.037.058-1.14-.522a.685.685 0 0 1 .097-.493c.545-.897.802-1.955.77-3.175-.001-.043-.022-.062-.065-.057-1.472.168-2.701.52-3.82 1.51-.043.038-.05.082-.02.131.152.246.304.467.456.663.397.515.795 1.027 1.194 1.537s.808 1.2.534 1.853c-.215.513-.883.668-1.374.525-.733-.215-1.34-.635-1.981-1.055-.081-.053-.09-.044-.025.029zM37.341 15.75c-.03-.123-.05-.121-.061.005-.056.678-.159 1.33-.309 1.956-.191.801-.654 1.312-1.549 1.253-2.097-.138-3.848-1.092-5.325-2.568-.407-.408-.172-.934.142-1.302 1.086-1.271 2.363-2.095 3.83-2.47.348-.09.772.08.888.439.137.424-.032.85-.478.971-1.056.285-1.993.852-2.81 1.701-.034.035-.032.068.005.099 1.101.925 2.327 1.558 3.76 1.642.04.002.066-.015.08-.052.065-.171.11-.353.136-.544.09-.669.171-1.316.242-1.941.07-.617.208-1.489.755-1.853.473-.318 1.161-.102 1.462.352.415.629.617 1.554.706 2.262.018.141.038.142.062.001.052-.307.115-.605.186-.895.215-.87 1.014-.99 1.678-.552.437.289.869.679 1.293 1.17.293.337.287.944-.151 1.17-.683.35-1.04-.274-1.454-.676-.048-.047-.076-.037-.083.029-.072.667-.231 1.63-.799 2.035a1.084 1.084 0 0 1-1.537-.252c-.389-.55-.51-1.319-.667-1.979zM52.643 16.09c.04-.557.12-1.136.238-1.737.195-.989.601-1.647 1.725-1.554 2.08.173 3.808 1.125 5.256 2.595.304.308.208.76-.04 1.081-1.049 1.358-2.378 2.246-3.987 2.665-.175.046-.361.017-.557-.086a.616.616 0 0 1-.311-.378c-.124-.399.041-.841.476-.953 1.045-.27 1.983-.835 2.815-1.695.035-.036.033-.069-.005-.101-1.036-.897-2.323-1.576-3.696-1.638-.115-.006-.182.049-.2.162-.128.796-.24 1.618-.334 2.465-.035.312-.1.627-.195.944-.245.815-.936 1.265-1.722.738-.624-.418-.914-1.864-.987-2.536-.017-.153-.039-.154-.065-.002-.05.286-.109.571-.176.856-.211.883-.991 1.038-1.67.595-.436-.284-.87-.674-1.301-1.17-.338-.389-.28-1.027.234-1.227.625-.244.981.347 1.359.721.048.048.076.038.084-.029.078-.615.219-1.613.767-2.006.696-.503 1.462-.176 1.772.569.224.535.375 1.114.455 1.738.001.005.004.007.008.006l.034-.001c.016-.001.024-.009.025-.025zM48.232 19.156a4.286 4.286 0 0 1 1.307-.833c.445-.179.844-.149 1.198.088.67.451.504 1.253.174 1.873a8.56 8.56 0 0 1-.706 1.131c-.076.1-.064.111.034.032.329-.265.684-.54 1.067-.825.733-.544 1.725-1.088 2.494-.268a7.027 7.027 0 0 1 1.606 2.756c.296.954.44 1.941.435 2.959-.002.485-.379.715-.813.76-1.659.17-3.408-.112-4.776-1.017a.516.516 0 0 1-.212-.286c-.213-.686.441-1.291 1.084-.901.894.541 1.946.796 3.157.765.044-.001.064-.024.058-.068-.03-.244-.063-.493-.099-.746a5.878 5.878 0 0 0-1.399-3.068c-.02-.024-.049-.039-.08-.043s-.062.004-.088.021a25.19 25.19 0 0 0-1.87 1.416c-.504.419-.967.691-1.39.817-.455.136-1.022-.045-1.224-.522-.407-.964.507-2.161 1.014-2.916.008-.012.007-.023-.005-.033l-.024-.019c-.003-.003-.006-.003-.009 0-.311.35-.679.588-1.105.715-.658.196-1.114-.273-1.238-.875a6.441 6.441 0 0 1-.093-1.795c.076-1.013 1.508-1 1.48.103-.007.254-.015.506-.025.756-.002.047.014.055.048.023zM40.566 20.063a3.664 3.664 0 0 1-.569-.818c-.406-.816.101-1.395.902-1.535a6.76 6.76 0 0 1 1.634-.068c1.009.073 1.054 1.434.051 1.474a7.118 7.118 0 0 1-.876-.021c-.05-.004-.058.012-.024.049.331.354.599.762.804 1.225.362.819-.01 1.782-1.007 1.747-.649-.024-1.512-.593-2.034-.983-.12-.09-.133-.077-.039.04.528.655 1.083 1.309 1.396 2.074.23.56.109 1.09-.348 1.508-.362.33-.716.601-1.063.815-1.264.776-2.771 1.175-4.52 1.195-.484.006-.759-.221-.822-.681-.229-1.656.054-3.401.916-4.821.099-.163.22-.264.362-.303.755-.205 1.264.469.873 1.125-.53.89-.777 1.931-.741 3.124.001.042.023.06.064.055.316-.039.625-.084.929-.137a5.814 5.814 0 0 0 2.634-1.156 2.23 2.23 0 0 0 .263-.24c.032-.034.035-.07.011-.109a7.831 7.831 0 0 0-.642-.915 27.198 27.198 0 0 1-1.283-1.686c-.517-.752-.544-1.891.612-2.011.834-.088 1.82.652 2.488 1.087.092.06.101.049.028-.033zM44.947 23.585c.821.057 1.533.187 2.134.388.786.262 1.02.805.958 1.589-.161 2.028-1.118 3.753-2.567 5.201-.182.182-.39.248-.625.198a1.364 1.364 0 0 1-.603-.295c-1.289-1.073-2.131-2.354-2.523-3.842-.099-.376.049-.813.447-.936.384-.119.817.027.936.446a6.106 6.106 0 0 0 1.732 2.864c.004.004.01.007.016.009l.018.003c.006 0 .012-.002.017-.005s.011-.006.015-.011c.925-1.075 1.58-2.345 1.656-3.776a.079.079 0 0 0-.051-.083 2.102 2.102 0 0 0-.579-.147 40.755 40.755 0 0 1-2.64-.359c-.87-.158-1.645-.802-1.079-1.756.395-.665 1.841-.947 2.554-1.042.173-.024.173-.047 0-.07-.883-.121-1.97-.303-1.589-1.539.062-.199.233-.459.512-.782.306-.352.6-.642.882-.87.386-.312 1.012-.173 1.174.336.194.612-.378.931-.739 1.312-.044.047-.035.074.029.082.619.076 1.704.232 2.055.834.316.541.252 1.018-.19 1.432s-1.338.578-1.957.715c-.237.053-.235.087.007.104z"/>
    </symbol>
    <symbol id="icon-header-logo-first" viewBox="0 0 93 32">
      <path d="M.022 25.443c-.16-1.442.534-2.297 2.028-2.564 1.388-.053 2.135.534 2.242 1.709.214 3.846 7.313 4.541 11.956 2.35 3.576-1.87 5.871-4.274 6.032-7.746 0-1.603-.481-2.457-1.495-2.885.107.053-1.975-.694-2.348-.855-.908-.374-1.175-1.656-.053-2.19l.481-.16c5.23-1.763 7.312-4.113 7.312-6.25.053-.801-.107-2.724-3.096-3.365-.267 0-.854 0-1.174.481a74.035 74.035 0 0 1-2.349 3.686c-1.441 2.244-2.829 4.594-4.697 7.906-2.562 4.327-3.256 5.823-3.843 7.051-.321.641-.481 1.068-.801 1.549-.801 1.229-4.857-.748-3.95-2.564.641-1.122.96-1.389 1.495-2.19.64-1.068 1.601-2.511 3.149-5.075 2.295-3.579 5.231-8.601 5.231-8.707.694-1.229.267-1.282-.481-1.015-1.761.694-2.455 1.229-3.416 2.03-.267.321-.694.694-1.174 1.122-1.602 1.122-3.47-1.389-1.068-3.579C12.618 1.832 15.128.71 19.291.229 25.589-.519 30.34 1.938 30.073 7.12c-.107 2.083-1.921 4.701-4.377 6.197-.801.481-1.014.641-1.334.801 1.174.534 2.455 1.496 2.562 4.327.16 4.808-3.149 9.348-8.914 12.019C11.284 33.616.342 31.906.022 25.443zm43.281-4.594c1.495-1.122 3.524-1.015 1.975 1.335-.588.908-2.349 3.205-3.576 4.38-6.031 5.769-11.476 5.716-13.505 2.778-2.295-3.365.534-9.669 4.057-15.705C35.137 8.722 41.595-.359 44.745.068c2.935.481 5.124 8.814 2.295 10.898-2.776 2.083-13.291 8.868-14.038 10.684-1.495 2.671-1.708 4.38-.694 5.182 1.388 1.122 5.018-.588 7.099-2.19 1.548-1.175 2.882-2.564 3.896-3.793zm.962-16.454c-4.324 4.06-8.648 11.004-8.648 11.272 0 .321 8.647-5.662 9.074-6.945.641-1.763-.107-3.098-.427-4.327zm12.666 21.849c2.989-1.977 3.096 1.549.694 3.152-1.174.855-1.922 1.282-3.149 1.656-1.495.427-2.989.16-3.897-.481-.587-.427-.907-1.068-.961-1.549-.854 1.122-2.989 2.778-6.085 2.19-3.896-.748-3.79-5.502-2.936-7.746 2.456-6.304 6.939-8.013 8.54-8.44 2.883-.748 5.071.321 5.605.801 1.975 1.763.321 5.075-1.922 3.953-1.334-.694-1.441-1.923-4.003-.801-.854.374-3.149 2.19-3.896 4.487-.427 1.282-.908 3.579.801 4.06.907.267 2.295 0 4.377-2.511 1.014-1.229 1.334-2.885 1.655-3.312 1.228-1.977 4.803.053 4.163 1.335-.053.16-.48.641-1.228 1.763-.694.962-1.067 2.35-.427 2.564.48.16 1.601-.427 2.669-1.122zm15.779-9.509c.908 2.831-2.829 5.075-2.829 3.152-.106-1.068-.747-1.229-1.761-1.229-1.868 0-3.736 1.442-4.964 3.526-1.174 1.977-1.228 3.953-.106 4.915.8.694 3.469.908 5.711-.267 2.349-1.229 3.523-2.671 4.057-2.778.801-.16 1.868 1.068 1.548 1.87s-3.096 3.259-5.605 4.38c-2.829 1.282-7.259 1.603-9.074.107-1.869-1.496-2.883-4.167-.427-8.974 4.11-6.891 9.715-7.105 11.636-6.41 1.067.374 1.548.962 1.815 1.709zM71.429 30.09c-1.121-2.511 2.349-10.577 5.871-16.614C80.183 8.561 86.908-.413 89.684.014c2.935.481 4.91 8.707 2.082 10.791-3.043 2.137-5.551 3.846-7.58 5.235 1.655-.694 3.523-1.122 4.911.374 1.494 1.603.8 3.953.107 5.021-1.388 2.137-5.071 4.006-7.419 3.686-.641 1.816 0 2.831 2.081 2.671 1.922-.16 4.751-2.297 6.673-4.274.747-.801 3.256.427 1.601 2.19-.587.641-2.402 2.404-3.95 3.579-1.441 1.122-5.338 3.098-8.487 1.549-2.189-1.068-2.349-3.633-1.655-5.769.908-2.404 8.647-2.618 7.526-5.663-1.014-2.831-5.925.053-8.807 4.22-1.014 2.457-1.921 5.502-2.242 7.158-.96 1.389-2.775-.107-3.096-.694zm8.914-14.583c0 .321 8.647-5.662 9.074-6.945.641-1.763-.107-3.098-.427-4.327-4.324 4.06-8.647 11.004-8.647 11.272z"/>
    </symbol>
    <symbol id="icon-header-logo-second" viewBox="0 0 32 32">
      <path d="M16.049 7.835a11.517 11.517 0 0 1-1.693-.238c-.976-.208-1.72-.59-1.637-1.737.16-2.234 1.185-4.14 2.758-5.66.361-.348.879-.195 1.223.089 1.408 1.162 2.316 2.539 2.723 4.131.198.771-.557 1.268-1.215.877-.13-.077-.243-.311-.282-.453-.31-1.134-.912-2.12-1.805-2.959a.044.044 0 0 0-.031-.013h-.002a.047.047 0 0 0-.017.004c-.005.003-.01.006-.014.011-.977 1.11-1.654 2.439-1.757 3.901-.011.156.061.245.215.266 1 .139 1.988.272 2.963.401.635.085 1.545.401 1.607 1.112.088 1.032-.789 1.412-1.634 1.642-.476.13-.911.223-1.307.28-.112.016-.112.034 0 .052.351.055.69.126 1.017.213.904.24.992 1.097.535 1.778a7.268 7.268 0 0 1-.971 1.133 2.24 2.24 0 0 1-.443.346.777.777 0 0 1-1.116-.412c-.224-.656.387-1.002.771-1.405.05-.051.039-.082-.032-.091-.588-.075-1.212-.18-1.743-.479-.719-.405-.857-1.351-.237-1.914.501-.456 1.418-.619 2.129-.772.248-.053.246-.087-.008-.102zm-4.5 3.502c.574-.529 1.756-1.282 2.305-.212.33.646.315 1.624.258 2.347-.078.993-1.491 1.057-1.552.041a6.5 6.5 0 0 1 .019-.975l-.002.026c.005-.063-.016-.074-.063-.031a4.545 4.545 0 0 1-1.336.861c-.493.209-.935.179-1.327-.09-.751-.515-.474-1.414-.1-2.103.24-.443.486-.816.739-1.12v-.004l-.021-.027c-.008-.011-.018-.012-.028-.003-.753.648-1.408 1.12-1.966 1.417-.632.335-1.3.365-1.828-.182-1.534-1.593-2.2-3.83-2.187-6.027.004-.481.239-.755.706-.825 1.725-.257 3.603.054 5.133.978a.687.687 0 0 1 .331.461c.16.739-.563 1.234-1.205.846-.89-.537-1.936-.802-3.138-.796h-.012a.843.843 0 0 1-.16-.016l.005.001c-.046-.01-.068.009-.064.056.083 1.218.398 2.288.944 3.213.196.333.417.62.67.876.034.034.072.039.114.014.376-.224.691-.442.943-.653.731-.61 1.342-1.08 1.835-1.412.426-.288 1.029-.482 1.579-.218.497.239.629.933.494 1.418-.222.794-.686 1.425-1.118 2.112-.057.091-.047.1.032.027zm9.099.222c.521.588 1.283 1.761.205 2.31-.647.329-1.575.307-2.305.262-1.102-.067-1.108-1.615.121-1.571.243.008.488.016.734.022.058.002.068-.02.029-.064-.35-.4-.625-.826-.825-1.279-.216-.492-.204-.934.037-1.326.76-1.229 2.52.021 3.261.57a.02.02 0 0 0 .011.003h.002a.017.017 0 0 0 .012-.005.016.016 0 0 0 .005-.011.016.016 0 0 0-.005-.011 31.02 31.02 0 0 1-.879-1.118l-.062-.086a4.366 4.366 0 0 1-.635-1.178c-.185-.537-.055-1.048.363-1.444 1.63-1.538 3.852-2.188 6.066-2.164.51.005.743.393.792.846.186 1.737-.112 3.771-1.144 5.169a.242.242 0 0 1-.086.073l-.001.001c-.525.247-1.099.062-1.208-.554a.73.73 0 0 1 .103-.523c.577-.951.849-2.072.816-3.364-.001-.045-.024-.066-.069-.061-1.56.179-2.862.551-4.048 1.601-.046.04-.054.086-.022.139.166.272.326.501.496.721l-.014-.018a154.349 154.349 0 0 0 1.779 2.306l-.514-.677c.422.541.856 1.272.566 1.964-.227.543-.936.708-1.456.556-.776-.227-1.42-.673-2.1-1.117-.086-.057-.095-.046-.027.031zM7.906 15.863c-.032-.13-.053-.129-.064.005-.059.718-.168 1.41-.327 2.073-.203.849-.693 1.39-1.641 1.328-2.222-.146-4.078-1.157-5.644-2.722-.431-.433-.182-.99.15-1.38 1.151-1.347 2.504-2.22 4.059-2.618.368-.095.818.085.941.465.145.45-.033.901-.507 1.029-1.119.302-2.112.903-2.978 1.802-.036.037-.034.072.005.105 1.167.98 2.466 1.65 3.985 1.74.042.003.07-.016.085-.055a2.58 2.58 0 0 0 .144-.577c.039-.188.13-.892.213-1.598l.044-.458c.074-.654.221-1.577.8-1.964.502-.337 1.231-.108 1.549.373.44.667.655 1.647.748 2.397.019.15.041.15.066.001.056-.325.122-.641.198-.948.227-.922 1.074-1.05 1.778-.585.463.307.92.72 1.371 1.24.31.357.304 1.001-.161 1.239-.724.371-1.102-.29-1.54-.717-.051-.05-.081-.039-.088.031-.076.707-.245 1.728-.847 2.157a1.15 1.15 0 0 1-1.629-.267c-.412-.583-.54-1.398-.707-2.098zm16.216.36c.043-.59.127-1.204.252-1.841.207-1.048.637-1.746 1.828-1.647 2.204.184 4.035 1.192 5.57 2.75.322.326.221.805-.042 1.146-1.111 1.439-2.52 2.38-4.225 2.825-.186.049-.383.018-.59-.091a.653.653 0 0 1-.33-.401c-.131-.423.044-.892.504-1.01 1.107-.286 2.102-.885 2.983-1.796.037-.038.035-.073-.005-.107-1.098-.951-2.462-1.67-3.917-1.735-.122-.006-.193.051-.212.172a39.66 39.66 0 0 0-.331 2.365l-.023.248a5.67 5.67 0 0 1-.217 1.041l.011-.04c-.259.863-.992 1.341-1.825.782-.661-.443-.969-1.976-1.046-2.687-.018-.162-.041-.163-.069-.003-.07.406-.135.713-.209 1.016l.022-.109c-.223.935-1.05 1.1-1.77.631-.462-.301-.921-.715-1.378-1.24-.358-.412-.297-1.088.248-1.3.662-.258 1.04.367 1.44.764.051.051.08.04.088-.031.082-.651.232-1.71.813-2.126.738-.533 1.549-.186 1.878.602.237.567.398 1.181.483 1.842.001.005.004.007.009.006l.036-.001c.017-.001.026-.01.027-.027zm-4.674 3.25c.42-.386.882-.68 1.385-.883.472-.189.895-.158 1.269.094.71.478.534 1.328.185 1.985-.25.469-.499.869-.748 1.198-.08.106-.068.117.036.033.292-.238.66-.525 1.033-.805l.098-.07c.776-.577 1.828-1.154 2.643-.284a7.449 7.449 0 0 1 1.702 2.921c.313 1.011.467 2.057.461 3.135-.002.514-.401.758-.861.805-1.758.18-3.612-.118-5.061-1.078a.548.548 0 0 1-.223-.299l-.001-.004c-.226-.727.467-1.368 1.149-.954.947.573 2.063.843 3.346.81.047-.001.068-.025.062-.072a30.039 30.039 0 0 0-.131-1l.026.21a6.227 6.227 0 0 0-1.482-3.251.133.133 0 0 0-.177-.023 27.11 27.11 0 0 0-2.025 1.535l.043-.035c-.534.444-1.025.732-1.473.866-.483.144-1.083-.047-1.297-.554-.432-1.021.538-2.29 1.074-3.091.008-.013.007-.024-.005-.035l-.026-.021c-.004-.003-.007-.003-.01 0-.329.371-.72.623-1.171.758-.697.208-1.181-.289-1.312-.927a6.89 6.89 0 0 1-.099-1.902c.081-1.074 1.598-1.06 1.568.109a51.1 51.1 0 0 1-.031.907l.004-.106c-.002.05.015.058.051.024zm-8.124.96a3.88 3.88 0 0 1-.603-.867c-.43-.865.107-1.479.956-1.626a7.146 7.146 0 0 1 1.731-.072c1.069.077 1.117 1.52.054 1.562a7.379 7.379 0 0 1-.928-.022c-.053-.004-.061.013-.026.051.351.375.635.808.852 1.299.384.868-.01 1.888-1.066 1.851-.688-.026-1.602-.628-2.155-1.042-.128-.096-.141-.082-.041.042.56.694 1.147 1.387 1.48 2.198.244.593.115 1.155-.368 1.598a7.587 7.587 0 0 1-1.127.863c-1.34.823-2.937 1.245-4.79 1.266-.513.006-.804-.235-.872-.722-.242-1.755.058-3.604.97-5.109.105-.173.233-.28.384-.321.8-.217 1.34.497.925 1.192-.561.943-.823 2.046-.785 3.31.002.044.024.064.068.058.334-.041.663-.09.984-.145a6.172 6.172 0 0 0 2.792-1.225c.101-.078.194-.163.278-.254.033-.036.037-.074.012-.116a8.38 8.38 0 0 0-.692-.985l.012.015a28.565 28.565 0 0 1-1.359-1.787c-.548-.796-.577-2.004.648-2.131.884-.094 1.929.691 2.636 1.152.097.063.107.052.029-.035zm4.643 3.733c.87.061 1.624.198 2.262.411.833.277 1.081.853 1.015 1.684-.171 2.149-1.185 3.977-2.72 5.512-.192.193-.413.262-.662.209a1.446 1.446 0 0 1-.641-.314l.002.002c-1.367-1.137-2.258-2.495-2.674-4.072-.105-.398.053-.862.474-.992.407-.126.866.028.992.473a6.468 6.468 0 0 0 1.835 3.035.051.051 0 0 0 .034.013h.002a.054.054 0 0 0 .034-.016c.98-1.14 1.675-2.486 1.754-4.001.002-.042-.016-.071-.054-.087a2.161 2.161 0 0 0-.614-.155 43.712 43.712 0 0 1-2.798-.38c-.922-.167-1.743-.85-1.144-1.861.418-.705 1.951-1.003 2.707-1.105.183-.025.183-.05 0-.074-.935-.129-2.088-.321-1.684-1.631.066-.211.247-.487.543-.828a7.57 7.57 0 0 1 .934-.922c.409-.33 1.073-.184 1.244.356.205.649-.401.986-.783 1.39-.047.05-.037.079.031.087.656.081 1.806.245 2.178.884.335.573.267 1.079-.201 1.517s-1.418.613-2.074.758c-.251.056-.249.092.008.111z"/>
    </symbol>
    <symbol id="icon-header-logo-third" viewBox="0 0 86 32">
      <path d="M4.768 31.038c-3.978 2.346-5.886.164-4.087-3.982C4.279 18.819 10.219 8.455 16.324.654c.927-1.091 2.126-.818 3.488.818 1.035 1.418.654 1.746-.655 3.327-2.016 2.4-4.087 5.182-6.704 9.273-2.071 3.273-6.213 9.601-7.249 12.819 2.889-1.418 4.906-1.8 6.268-1.909 3.434-.273 6.759-.109 9.157 2.346 2.18 2.182-1.744 4.146-4.524 2.455-.709-.436-1.689-.982-4.578-.818-1.417.109-3.598.273-6.759 2.073zm19.022-9.491c1.09-2.073 2.998-4.091 5.287-5.564 2.235-1.309 4.633-1.691 6.813-1.091 3.325.982 4.47 5.128 2.508 9.164-.981 1.964-2.453 3.928-4.252 5.237-3.216 2.291-6.922 3.055-9.538 1.418-2.289-1.527-2.671-5.564-.818-9.164zm4.034 5.837c1.908.982 5.124-1.255 6.486-4.364.709-1.582 1.2-4.091-.763-4.528-2.017-.491-4.742 1.255-6.05 4.746-.382.982-.981 3.437.327 4.146zM56.422 4.528l-1.69 2.018c-1.035 1.309-2.071 2.618-2.997 3.928a53.357 53.357 0 0 1 3.434-.327c.818-.109 1.417.327.709 1.964-.218.491-1.09 2.018-2.998 1.909-1.908 0-2.78 0-3.543.055-2.289 3.546-3.761 6.546-4.197 7.637-1.199 3-1.853 4.528-.654 5.509 1.58 1.309 7.086-2.946 9.484-5.509 1.526-1.146 2.562.927.763 3-.49.546-1.363 1.691-2.671 2.727-6.486 5.128-10.356 4.8-11.936 2.182-2.344-3.928.981-9.437 4.252-15.11-.218 0-.545.055-.873.109-.817.109-1.308-.982-1.09-1.909.164-.655.436-1.255 1.036-1.364l3.053-.491c2.78-4.528 6.486-9.382 8.176-9.219.926.164 3.161 1.2 1.744 2.891zm13.227 21.437c1.963-1.364 3.326.6 1.745 2.182l-.545.6c-2.126 1.964-4.361 2.837-6.268 2.673-1.69-.164-2.78-1.364-2.998-3.055-1.744 2.182-4.469 3.055-6.377 3.109-.927 0-2.018-.164-3.217-1.091-1.962-1.527-1.581-4.418-1.036-5.891.655-1.855 3.435-7.255 4.307-8.891.436-.927 1.526-1.2 3.053 0 1.689 1.309.709 2.618-.381 4.2-2.508 3.655-3.271 6.273-2.562 7.31.763 1.2 3.216-.218 4.633-1.527 2.071-1.909 3.597-5.619 4.415-7.255.654-1.527.545-2.564 1.254-2.782 1.744-.709 4.252 2.127 3.543 3.218.055.164-2.398 3.709-3.379 6.764-.654 2.018.981 2.073 2.071 1.527.272-.109 1.199-.655 1.743-1.091zm16.129-9.109c.709 1.255.654 2.837-.163 3.655-.927.873-2.017 1.2-2.943 1.146-1.09-.055-1.962-.546-2.017-1.364-.055-.873.818-1.255 1.962-1.473.654-.109.164-1.036-.927-1.2-1.254-.164-1.962.055-2.289.218-1.363.655-1.635 1.746-1.472 2.4.109.382.272 1.036 1.744 2.127 2.235 1.636 3.271 2.673 3.597 3.655.763 2.4-1.689 5.128-5.886 5.455-2.889.218-6.759-.873-7.685-4.364-.436-1.582 0-2.891.872-3.764.6-.6 1.254-.764 1.689-.764.763 0 1.363.546 1.417 1.364.055.273 0 .655-.055.873-1.144 1.855 1.145 3.218 3.216 2.946 1.144-.164 1.798-.6 1.635-1.527-.055-.382-.164-.764-1.472-1.691-1.635-1.146-3.27-2.564-3.597-3.928-.49-2.837 2.289-5.073 4.197-5.728 4.033-1.146 6.977.109 8.176 1.964z"/>
    </symbol>
  </defs>
</svg>
