<svg aria-hidden="true" style="position: absolute; width: 0; height: 0; overflow: hidden;" version="1.1" xmlns="http://www.w3.org/2000/svg" xmlns:xlink="http://www.w3.org/1999/xlink">
<defs>
<symbol id="icon-phone" viewBox="0 0 32 32">
<path d="M28 21.893v4.715c0 0 0 0 0 0.001 0 0.704-0.545 1.28-1.236 1.33l-0.004 0c-0.583 0.040-1.059 0.061-1.427 0.061-11.783 0-21.333-9.552-21.333-21.333 0-0.368 0.020-0.844 0.061-1.427 0.050-0.695 0.627-1.24 1.33-1.24 0 0 0 0 0.001 0h4.715c0 0 0 0 0.001 0 0.345 0 0.628 0.262 0.663 0.597l0 0.003c0.031 0.307 0.059 0.551 0.085 0.736 0.291 1.99 0.855 3.787 1.659 5.445l-0.048-0.11c0.127 0.267 0.044 0.585-0.196 0.756l-2.879 2.056c1.797 4.114 5.012 7.329 9.015 9.082l0.112 0.044 2.052-2.872c0.113-0.157 0.295-0.258 0.501-0.258 0.096 0 0.187 0.022 0.268 0.061l-0.004-0.002c1.548 0.754 3.344 1.317 5.233 1.595l0.101 0.012c0.185 0.027 0.429 0.055 0.733 0.085 0.338 0.036 0.599 0.319 0.599 0.663 0 0 0 0.001 0 0.001v-0z"></path>
</symbol>
<symbol id="icon-time" viewBox="0 0 32 32">
<path d="M16 29.333c-7.364 0-13.333-5.969-13.333-13.333s5.969-13.333 13.333-13.333 13.333 5.969 13.333 13.333-5.969 13.333-13.333 13.333zM16 26.667c5.891 0 10.667-4.776 10.667-10.667s-4.776-10.667-10.667-10.667v0c-5.891 0-10.667 4.776-10.667 10.667s4.776 10.667 10.667 10.667v0zM17.333 16h5.333v2.667h-8v-9.333h2.667v6.667z"></path>
</symbol>
<symbol id="icon-at" viewBox="0 0 32 32">
<path d="M26.667 16c-0.001-5.891-4.776-10.666-10.667-10.666s-10.667 4.776-10.667 10.667 4.776 10.667 10.667 10.667c2.205 0 4.255-0.669 5.955-1.816l-0.038 0.024 1.48 2.219c-2.072 1.402-4.627 2.239-7.376 2.239-0.007 0-0.015 0-0.022-0h0.001c-7.364 0-13.333-5.969-13.333-13.333s5.969-13.333 13.333-13.333 13.333 5.969 13.333 13.333v2c0 0 0 0 0 0.001 0 2.577-2.089 4.667-4.667 4.667-1.599 0-3.010-0.804-3.851-2.030l-0.010-0.016c-1.215 1.262-2.918 2.046-4.805 2.046-3.682 0-6.667-2.985-6.667-6.667s2.985-6.667 6.667-6.667c1.508 0 2.9 0.501 4.017 1.345l-0.017-0.012h2.667v7.333c0 1.105 0.895 2 2 2s2-0.895 2-2v0-2zM16 12c-2.209 0-4 1.791-4 4s1.791 4 4 4v0c2.209 0 4-1.791 4-4s-1.791-4-4-4v0z"></path>
</symbol>
<symbol id="icon-github" viewBox="0 0 32 32">
<path d="M16.002 2.667c-7.367 0-13.334 6.119-13.334 13.672 0 6.050 3.816 11.16 9.117 12.971 0.667 0.12 0.917-0.291 0.917-0.649 0-0.325-0.017-1.401-0.017-2.546-3.35 0.633-4.216-0.837-4.483-1.607-0.15-0.393-0.8-1.607-1.367-1.931-0.466-0.256-1.133-0.889-0.016-0.906 1.050-0.017 1.8 0.991 2.050 1.401 1.2 2.068 3.117 1.487 3.883 1.128 0.117-0.889 0.466-1.487 0.85-1.828-2.967-0.342-6.067-1.521-6.067-6.751 0-1.486 0.517-2.717 1.367-3.675-0.133-0.341-0.6-1.743 0.133-3.623 0 0 1.117-0.359 3.667 1.402 1.066-0.307 2.2-0.461 3.333-0.461s2.267 0.154 3.334 0.462c2.55-1.777 3.666-1.402 3.666-1.402 0.733 1.88 0.267 3.281 0.134 3.623 0.85 0.957 1.366 2.171 1.366 3.675 0 5.247-3.116 6.409-6.083 6.75 0.483 0.427 0.9 1.248 0.9 2.53 0 1.829-0.017 3.298-0.017 3.76 0 0.358 0.25 0.786 0.917 0.649 5.427-1.879 9.082-7.098 9.083-12.971 0-7.554-5.966-13.672-13.333-13.672z"></path>
</symbol>
<symbol id="icon-instagram" viewBox="0 0 32 32">
<path d="M19.608 9.129h-7.205c-1.807 0.003-3.271 1.467-3.274 3.273v7.205c0.002 1.807 1.466 3.271 3.273 3.273h7.205c1.807-0.003 3.271-1.467 3.273-3.273v-7.205c-0.002-1.807-1.466-3.271-3.273-3.274h-0zM16.005 20.287c-2.361 0-4.282-1.922-4.282-4.282s1.921-4.282 4.282-4.282c2.36 0 4.282 1.921 4.282 4.282s-1.922 4.282-4.282 4.282zM20.404 12.598c-0.552-0-1-0.448-1-1.001s0.448-1.001 1.001-1.001c0 0 0 0 0.001 0h-0c0.552 0 1 0.448 1 1.001s-0.448 1.001-1.001 1.001c-0 0-0 0-0.001 0h0zM16.005 13.181c-1.559 0.002-2.822 1.265-2.823 2.823v0c0.002 1.559 1.265 2.822 2.823 2.823h0c1.559-0.002 2.822-1.265 2.823-2.823v-0c-0.002-1.558-1.265-2.821-2.823-2.823h-0zM16.005 2.67c-7.365 0-13.335 5.97-13.335 13.335s5.971 13.335 13.335 13.335c7.364 0 13.335-5.971 13.335-13.335s-5.971-13.335-13.335-13.335zM24.34 19.608c0 2.608-2.123 4.732-4.732 4.732h-7.205c-2.609 0-4.732-2.123-4.732-4.732v-7.205c0-2.608 2.123-4.732 4.732-4.732h7.205c2.608 0 4.732 2.123 4.732 4.732v7.205z"></path>
</symbol>
<symbol id="icon-telegram" viewBox="0 0 32 32">
<path d="M16.005 2.67c7.365 0 13.335 5.97 13.335 13.335s-5.97 13.335-13.335 13.335c-7.365 0-13.335-5.97-13.335-13.335s5.97-13.335 13.335-13.335zM21.928 10.671c-0.508 0.009-1.288 0.277-5.038 1.817-1.314 0.54-3.94 1.656-7.877 3.35-0.639 0.251-0.975 0.496-1.005 0.737-0.059 0.461 0.614 0.605 1.46 0.876 0.69 0.221 1.617 0.48 2.099 0.49 0.438 0.010 0.925-0.169 1.465-0.534 3.678-2.451 5.578-3.691 5.697-3.717 0.084-0.019 0.201-0.043 0.28 0.027 0.078 0.069 0.070 0.2 0.063 0.236-0.067 0.281-3.523 3.385-3.722 3.589l-0.095 0.096c-0.733 0.724-1.474 1.196-0.196 2.027 1.154 0.751 1.825 1.23 3.014 1.999 0.76 0.492 1.355 1.075 2.14 1.003 0.36-0.032 0.733-0.368 0.923-1.367 0.448-2.361 1.327-7.479 1.53-9.587 0.018-0.185-0.005-0.421-0.023-0.525s-0.055-0.252-0.192-0.361c-0.162-0.13-0.412-0.157-0.523-0.155z"></path>
</symbol>
<symbol id="icon-mastercard" viewBox="0 0 32 32">
<path d="M16.002 8.872c2.108 1.66 3.46 4.235 3.46 7.125s-1.353 5.465-3.46 7.125c-2.107-1.66-3.461-4.235-3.461-7.125s1.354-5.465 3.461-7.125zM14.842 8.095c-2.229 1.908-3.64 4.741-3.64 7.905 0 3.162 1.41 5.993 3.636 7.901-1.273 0.73-2.799 1.16-4.426 1.16-0.005 0-0.010 0-0.015 0h0.001c-5.005 0-9.063-4.058-9.063-9.063s4.058-9.063 9.064-9.063c1.615 0 3.13 0.422 4.444 1.162zM17.165 23.901c2.226-1.907 3.636-4.739 3.636-7.901 0-3.163-1.413-5.997-3.641-7.904 1.274-0.731 2.801-1.162 4.429-1.162 0.005 0 0.010 0 0.016 0h-0.001c5.005 0 9.063 4.058 9.063 9.063s-4.058 9.063-9.063 9.063c-1.613 0-3.128-0.421-4.44-1.16z"></path>
</symbol>
<symbol id="icon-visa" viewBox="0 0 32 32">
<path d="M29.629 21.024l-0.299-1.5h-3.352l-0.532 1.489-2.688 0.006c1.727-4.151 3.009-7.225 3.846-9.224 0.218-0.522 0.607-0.788 1.179-0.784 0.437 0.003 1.15 0.004 2.141 0.001l2.077 10.007-2.371 0.005zM26.731 17.469h2.161l-0.807-3.76-1.354 3.76zM9.414 11.009l2.702 0.004-4.176 10.012-2.735-0.001c-0.925-3.571-1.604-6.218-2.037-7.942-0.133-0.529-0.397-0.898-0.905-1.072-0.453-0.156-1.207-0.396-2.263-0.722v-0.275c1.974-0 3.412-0 4.316 0 0.747 0 1.183 0.361 1.323 1.102 0.141 0.744 0.496 2.635 1.066 5.672l2.709-6.777zM15.827 11.012l-2.134 10.011-2.571-0.004c0.051-0.243 0.761-3.58 2.132-10.011l2.574 0.004zM21.042 10.827c0.768 0 1.737 0.239 2.296 0.461l-0.451 2.075c-0.504-0.202-1.333-0.476-2.030-0.466-1.015 0.016-1.641 0.441-1.641 0.85 0 0.663 1.088 0.997 2.208 1.723 1.278 0.828 1.447 1.569 1.431 2.377-0.018 1.674-1.431 3.326-4.412 3.326-1.362-0.020-1.85-0.135-2.96-0.528l0.469-2.166c1.129 0.473 1.608 0.623 2.573 0.623 0.885 0 1.644-0.357 1.65-0.98 0.005-0.443-0.266-0.662-1.259-1.21s-2.384-1.305-2.366-2.829c0.023-1.95 1.87-3.257 4.492-3.257z"></path>
</symbol>
<symbol id="icon-footer-logo-signature" viewBox="0 0 139 32">
<path d="M3.183 31.574c8.263 0 21.784-7.261 25.54-15.449 1.277-4.307-1.478-5.734-5.233-5.734-1.527 0-3.18 0.226-4.833 0.601-0.451 0.1-0.726 0.175-0.801 0.175-0.025 0-0.025 0-0.025-0.025 0.025-0.025 0.301-0.2 0.826-0.526 6.285-4.182 9.089-7.312 9.615-9.065 0.325-1.026-0.15-1.552-1.177-1.552-3.105 0-11.268 5.058-17.502 17.052l-0.025 0.025c-0.1 0 0.075-0.651 0.376-1.653 0.475-1.552 1.277-3.931 1.928-6.109 0.826-2.729 1.452-5.108 0.951-5.108l-0.15 0.025c-1.502 0-5.534 7.562-6.184 9.014l-0.226 0.576c-0.1 0.35-0.1 0.526 0 0.526 0.15 0 0.501-0.451 0.851-1.202 1.628-3.28 3.656-6.585 5.259-8.313-0.276 1.678-4.131 13.471-3.956 14.147-0.275 1.126-0.050 1.477 0.251 1.477 0.225 0 0.501-0.225 0.576-0.475 0.050-0.15 0-0.326-0.175-0.451 4.382-11.217 14.973-19.129 17.827-19.129 0.601 0 0.851 0.35 0.626 1.127-0.15 0.476-0.476 1.077-1.027 1.878-2.203 2.754-5.884 5.483-9.49 7.536-0.826 0.476-1.527 0.902-1.577 0.951-0.075 0.3 0 0.376 0.226 0.376 0.3 0 0.876-0.226 1.477-0.351 1.953-0.651 3.981-1.002 5.759-1.002 3.656 0 6.335 1.453 5.333 4.732-0.35 1.102-1.102 2.404-2.353 3.932-4.532 5.383-14.147 10.541-20.182 11.367-0.626 0.050-1.177 0.075-1.678 0.075-2.83 0-3.656-0.926-3.23-2.279 1.127-3.706 11.568-10.617 16.050-10.617 0.951 0 1.753 0.351 1.678 1.127-0.025 0.226 0.1 0.351 0.25 0.351 0.125 0 0.276-0.1 0.326-0.276 0.025-0.075 0.025-0.175 0-0.3-0.351-0.926-1.202-1.327-2.379-1.327-4.933 0-15.324 6.986-16.576 11.067-0.451 1.427 0.251 2.504 2.679 2.804h0.376zM30.436 26.992c0.3 0 0.651-0.25 0.726-0.451 0.025-0.125-0.025-0.226-0.175-0.276-0.576-0.476 0.601-4.582 0.976-6.385l0.251-0.876c0.125-0.426 0.2-0.551 0.3-0.676 0.701-0.726 4.206-6.911 5.959-11.067 0.2-0.476 0.451-1.101 0.626-1.678 0.276-0.826 0.351-1.653-0.375-1.678-1.377 0-3.881 6.059-5.283 9.364-0.526 1.402-1.252 3.431-1.903 5.534-1.002 3.255-1.778 6.686-1.352 8.113 0.075 0.050 0.15 0.075 0.251 0.075zM32.789 17.102v-0.050c0.175-0.551 1.252-3.405 1.778-4.682 1.903-4.482 3.080-7.136 4.182-8.013 0.050 0.251-0.025 0.651-0.175 1.152-0.826 2.679-5.609 11.593-5.784 11.593zM36.605 22.51c1.252 0 3.956-3.28 4.082-3.28l-0.125 0.676c-0.276 1.277 0.125 1.728 0.801 1.728 1.152 0 3.055-1.227 3.756-1.928 0.025-0.125 0-0.175-0.1-0.175-0.15 0-0.401 0.125-0.701 0.325-1.002 0.651-2.404 1.352-2.779 1.352-0.926 0 0.35-2.905-0.451-2.905-0.376 0-0.877 0.726-1.002 0.726-0.050 0-0.050-0.050-0.025-0.175 0.1-1.077-0.125-1.477-0.526-1.477-1.002 0-2.955 2.528-3.431 4.006-0.225 0.751 0.050 1.127 0.501 1.127zM36.856 21.909c-0.15 0-0.175-0.15-0.075-0.551 0.1-0.301 0.3-0.751 0.626-1.377 0.977-1.377 1.603-2.128 1.928-2.128 0.3 0 0.325 0.626 0.125 1.903-0.901 0.926-2.153 2.153-2.604 2.153zM47.432 24.388c0.676 0 1.628-0.451 2.855-1.352 0.826-0.701 3.155-2.629 3.33-3.28 0.050-0.1 0-0.2-0.125-0.2-0.175 0-0.376 0.175-1.227 1.027-1.628 1.678-2.504 2.329-3.706 2.98-0.325 0.2-0.601 0.3-0.801 0.3-0.951 0-0.776-1.853-0.4-3.13l0.175-0.501c0.351-0.801 2.003-4.156 2.779-4.156 0.125 0 0.225 0.1 0.3 0.275 0.125 0.226-0.025 1.127-0.225 1.753-0.175 0.551-0.175 0.476-0.325 0.751-0.025 0.125 0 0.2 0.075 0.2 0.15 0 0.451-0.25 0.601-0.651 0.1-0.226 0.175-0.451 0.251-0.676 0.35-1.102 0.225-2.028-0.325-2.154-1.527 0.075-3.18 2.855-3.906 5.284-0.526 1.727-0.601 3.28 0.225 3.43 0.125 0.050 0.276 0.1 0.451 0.1zM53.802 27.643c0.2 0 0.551-0.275 0.877-0.826 0.576-0.976 2.454-4.332 2.729-4.432 0.15-0.025 0.826-0.426 1.127-0.426 0.075 0 0.125 0.025 0.125 0.075 0.776 0.501 1.477 0.801 2.229 0.801 1.077 0 2.253-0.601 3.906-1.978 0.601-0.451 0.877-0.776 0.926-0.952 0.025-0.075 0-0.125-0.075-0.125-0.175 0-0.526 0.2-0.977 0.601-1.728 1.352-2.704 1.978-3.631 1.978-0.626 0-1.252-0.275-2.078-0.801 1.803-1.352 4.432-4.131 4.782-5.258 0.125-0.426-0.050-0.651-0.401-0.651-1.753 0-6.36 5.759-8.288 9.265 0.401-1.728 1.277-4.557 1.878-6.636 2.529-3.831 5.559-9.439 6.46-12.344 0.426-1.427 0.325-1.903-0.2-1.928-2.178 0-5.408 8.714-7.437 15.274-0.751 2.504-1.352 4.708-1.628 5.984-0.375 1.452-0.726 2.379-0.325 2.379zM57.433 16.701l0.15-0.451c0-0.025 3.931-11.643 5.358-11.643 0.1 0 0.125 0.25-0.15 1.152-0.526 1.727-2.103 5.408-5.358 10.942zM58.109 21.384c-0.025 0-0.050 0-0.025-0.025 0-0.050 0.025-0.1 0.1-0.175 1.002-1.377 3.931-4.607 4.908-4.983-0.726 1.953-4.682 5.183-4.983 5.183zM105.028 32c0.876 0 1.628-0.25 2.178-0.851-0.025-0.075-0.050-0.1-0.15-0.1-0.226 0-1.102 0.401-2.028 0.401-4.407 0-9.74-5.759-13.296-6.26-0.551-0.125-1.177-0.175-1.828-0.175-1.302 0-2.73 0.226-3.906 0.751 2.254-3.38 8.088-14.197 10.141-20.933 0.676-2.229 0.901-3.731 0.576-4.732-0.125 0.050-0.351 0.376-0.426 0.626-0.050 0.501 0.050 0.951-0.751 3.581-0.951 3.13-2.779 7.912-5.133 12.419-2.204 4.257-3.906 7.537-6.185 9.965-1.828 1.077-3.856 3.080-4.182 4.182-0.1 0.375-0.050 0.626 0.251 0.626 0.125 0 0.3-0.050 0.526-0.15 0.801-0.35 3.28-3.105 4.457-4.732 1.753-0.776 3.205-1.126 4.507-1.126 2.429 0 4.382 1.177 6.986 2.879 2.153 1.452 5.684 3.631 8.263 3.631zM80.79 30.648c-0.025 0-0.025-0.025-0.025-0.1 0.125-0.351 1.302-1.778 3.305-3.205-2.028 2.353-3.030 3.305-3.28 3.305zM102.709 24.013c0.951 0 2.128-1.803 2.729-2.855l0.325-0.576c0.050-0.025 1.828-0.226 2.855-0.325 0.125-0.025 0.2-0.15 0.225-0.276 0.050-0.1 0.025-0.2-0.075-0.2-1.202 0.075-1.653 0.15-2.554 0.251-0.125 0-0.15-0.025-0.1-0.125 0.075-0.275 0.25-0.626 0.576-1.527 0.526-1.753 0.376-3.581-1.277-3.581-0.15 0-0.276 0-0.426 0.025-1.778 0.226-4.407 2.704-4.958 4.457-0.3 1.002 0.075 1.752 1.653 1.752 0.476 0 0.451 0 0.926-0.050l-0.15 0.501c-0.275 0.901-0.601 2.128-0.275 2.328 0.15 0.15 0.325 0.2 0.526 0.2zM102.784 23.537h-0.025c-0.35 0 0.276-2.079 0.451-2.629 0.35-0.025 1.803-0.251 1.878-0.251l-0.376 0.701c-0.651 1.002-1.202 1.853-1.928 2.179zM101.908 20.507c-0.801 0-1.552-0.25-1.277-1.177 0.526-1.678 3.13-4.006 4.632-4.006 1.052 0 1.377 0.926 0.751 3.18-0.2 0.676-0.551 1.527-0.651 1.603-0.025 0.025-1.727 0.275-1.903 0.275-0.050 0-0.025-0.050 0-0.2l0.3-0.776c0.075-0.276-0.025-0.226-0.225-0.251-0.15 0-0.251 0.175-0.501 0.701-0.15 0.3-0.251 0.576-0.276 0.576-0.25 0.050-0.551 0.075-0.851 0.075zM115.865 9.389h-0.701c0.234-0.631 0.428-1.093 0.636-1.548l-0.060 0.147c0.476-1.027 0.851-1.728 1.152-2.079l0.050-0.025s0 0.1-0.025 0.325c-0.025 0.226-0.1 0.576-0.25 1.052-0.31 0.932-0.581 1.637-0.877 2.328l0.076-0.2zM114.888 10.016h0.701c-0.476 1.102-1.126 2.454-2.028 4.081-0.351 0.701-0.551 1.052-0.601 1.052-0.025 0-0.025-0.075 0.025-0.2l0.2-0.601c0.050-0.1 0.075-0.226 0.15-0.376 0.25-0.676 0.601-1.577 1.052-2.729 0.175-0.426 0.325-0.826 0.501-1.227zM116.14 10.016c2.754 0.050 5.383 0.075 7.862 0.1 2.954 0.050 5.058 0.1 6.31 0.125 0.1 0 0.2-0.025 0.276-0.1s0.1-0.15 0.125-0.226c0.012-0.030 0.019-0.064 0.019-0.1s-0.007-0.070-0.019-0.102l0.001 0.002c-0.025-0.050-0.075-0.075-0.15-0.1-2.279-0.025-5.283-0.050-8.989-0.125-1.778-0.025-3.506-0.075-5.158-0.1 0.254-0.565 0.543-1.32 0.798-2.090l0.054-0.189c0.175-0.576 0.25-1.027 0.275-1.377 0-0.351-0.125-0.526-0.35-0.526l-0.25 0.050c-0.426 0-1.177 1.277-2.254 3.831-0.050 0.1-0.1 0.175-0.125 0.276-2.905-0.025-5.609-0.050-8.088-0.050l-4.382 0.025c-0.068 0.003-0.13 0.031-0.175 0.075l0-0c-0.050 0.075-0.1 0.125-0.125 0.2s-0.025 0.125 0 0.175c0.050 0.050 0.1 0.075 0.175 0.075h0.601c0.125 0 0.526 0 1.227 0.025h2.354c2.304 0.025 5.033 0.075 8.138 0.1-0.926 2.304-1.803 4.782-2.629 7.462-0.576 1.928-1.052 3.756-1.427 5.484s-0.551 3.155-0.526 4.257c0 1.102 0.3 1.653 0.901 1.653 0.501 0 1.052-0.376 1.653-1.127 0.601-0.726 1.202-1.627 1.803-2.654 0.406-0.664 0.938-1.623 1.445-2.597l0.157-0.332c0.451-0.926 0.776-1.627 0.977-2.103 0.050-0.15 0.075-0.251 0.075-0.325 0.025-0.075 0.025-0.1-0.025-0.125-0.025-0.025-0.075-0.025-0.125-0.025-0.075 0-0.125 0-0.15 0.025s-0.075 0.075-0.1 0.15c-0.050 0.075-0.1 0.2-0.175 0.375v0.025c-0.075 0.1-0.2 0.325-0.376 0.701-0.79 1.559-1.299 2.493-1.819 3.419l0.292-0.565c-0.626 1.177-1.277 2.229-1.903 3.205-0.651 0.977-1.127 1.452-1.477 1.452s-0.501-0.401-0.501-1.202c0.025-0.801 0.125-1.778 0.325-2.954s0.451-2.329 0.726-3.506c0.276-1.177 0.526-2.153 0.751-2.954 0.175-0.676 0.276-1.052 0.3-1.177l0.025-0.025c0.676-0.877 1.527-2.304 2.579-4.307 0.222-0.396 0.582-1.119 0.927-1.85l0.15-0.353zM118.804 22.535c1.377 0 4.733-3.105 5.734-3.681-0.050 0.325-0.1 0.676-0.075 1.027 0.050 1.277 0.826 1.678 1.778 1.678 1.577 0 3.706-1.152 3.881-1.427l0.075-0.15c0.050-0.175-0.025-0.275-0.15-0.275-0.1 0-0.226 0.050-0.351 0.15-0.401 0.325-2.053 1.176-3.255 1.176-0.751 0-1.327-0.35-1.252-1.377 0.025-0.726 0.2-1.427-0.326-1.502-0.175 0-0.676 0.325-2.654 1.803-2.379 1.803-2.905 2.103-3.18 2.103-0.325 0-0.276-0.651-0.050-1.402 0.326-1.002 0.926-2.229 1.377-2.654 0.050 0.050 0.1 0.075 0.15 0.075 0.075 0 0.15-0.1 0.2-0.2 0.050-0.251 0-0.576-0.225-0.576-0.501 0-1.628 1.953-2.053 3.331-0.375 1.252-0.3 1.828 0.376 1.903zM126.251 27.218c2.178 0 4.933-1.277 7.211-2.804 1.628-1.052 2.704-2.053 2.929-2.829 0.251-0.751-0.325-1.302-1.903-1.527 0.901-0.401 3.055-1.327 3.731-1.327l0.2 0.025c0.125 0 0.225-0.050 0.25-0.15 0.050-0.125-0.1-0.325-0.451-0.325l-0.276 0.025c-0.801 0-3.030 1.002-4.357 1.678-0.926-0.2-3.105-0.025-2.829-0.926 0.050-0.15 0.175-0.325 0.375-0.551 0.251-0.3 2.204-1.878 2.855-1.878 0.175 0 0.225 0.15 0.3 0.15 0.15 0 0.15-0.125 0.275-0.351 0.075-0.226-0.025-0.325-0.225-0.325-0.501 0-1.653 0.626-2.454 1.227-0.977 0.701-1.427 1.252-1.578 1.678-0.25 0.851 0.877 1.202 2.128 1.277 0.15 0 0.276 0.025 0.276 0.075-2.479 1.602-7.086 4.131-7.612 5.809-0.1 0.401 0 0.726 0.376 1.002 0.25 0.050 0.501 0.050 0.776 0.050zM126.201 26.767c-0.426 0-0.651-0.125-0.551-0.451 0.125-0.375 0.676-1.002 1.853-1.953 1.002-0.776 5.408-3.856 6.61-3.881 1.577 0.251 2.003 0.476 1.853 0.977-0.125 0.426-0.726 1.027-1.803 1.853-1.302 1.327-6.26 3.455-7.962 3.455z"></path>
</symbol>
<symbol id="icon-header-logo-full" viewBox="0 0 88 32">
<path d="M63.030 21.702c-1.167 0.688-1.727 0.048-1.199-1.168 1.055-2.416 2.798-5.456 4.588-7.744 0.272-0.32 0.623-0.24 1.023 0.24 0.304 0.416 0.192 0.512-0.192 0.976-0.592 0.704-1.199 1.52-1.966 2.72-0.608 0.96-1.823 2.816-2.126 3.76 0.847-0.416 1.439-0.528 1.839-0.56 1.007-0.080 1.982-0.032 2.686 0.688 0.64 0.64-0.512 1.216-1.327 0.72-0.208-0.128-0.496-0.288-1.343-0.24-0.416 0.032-1.055 0.080-1.983 0.608zM68.609 18.918c0.32-0.608 0.879-1.2 1.551-1.632 0.656-0.384 1.359-0.496 1.998-0.32 0.975 0.288 1.311 1.504 0.735 2.688-0.288 0.576-0.719 1.152-1.247 1.536-0.943 0.672-2.030 0.896-2.798 0.416-0.671-0.448-0.783-1.632-0.24-2.688zM69.792 20.63c0.56 0.288 1.503-0.368 1.902-1.28 0.208-0.464 0.352-1.2-0.224-1.328-0.592-0.144-1.391 0.368-1.775 1.392-0.112 0.288-0.288 1.008 0.096 1.216zM78.181 13.926l-0.496 0.592c-0.304 0.384-0.608 0.768-0.879 1.152 0.24-0.032 0.544-0.064 1.007-0.096 0.24-0.032 0.416 0.096 0.208 0.576-0.064 0.144-0.32 0.592-0.879 0.56-0.56 0-0.815 0-1.039 0.016-0.672 1.040-1.103 1.92-1.231 2.24-0.352 0.88-0.544 1.328-0.192 1.616 0.464 0.384 2.078-0.864 2.782-1.616 0.448-0.336 0.751 0.272 0.224 0.88-0.144 0.16-0.4 0.496-0.783 0.8-1.903 1.504-3.038 1.408-3.501 0.64-0.687-1.152 0.288-2.768 1.247-4.432-0.064 0-0.16 0.016-0.256 0.032-0.24 0.032-0.384-0.288-0.32-0.56 0.048-0.192 0.128-0.368 0.304-0.4l0.895-0.144c0.815-1.328 1.903-2.752 2.398-2.704 0.272 0.048 0.927 0.352 0.512 0.848zM82.060 20.214c0.576-0.4 0.976 0.176 0.512 0.64l-0.16 0.176c-0.624 0.576-1.279 0.832-1.839 0.784-0.496-0.048-0.815-0.4-0.879-0.896-0.512 0.64-1.311 0.896-1.871 0.912-0.272 0-0.592-0.048-0.944-0.32-0.575-0.448-0.464-1.296-0.304-1.728 0.192-0.544 1.007-2.128 1.263-2.608 0.128-0.272 0.448-0.352 0.895 0 0.496 0.384 0.208 0.768-0.112 1.232-0.736 1.072-0.959 1.84-0.751 2.144 0.224 0.352 0.943-0.064 1.359-0.448 0.608-0.56 1.055-1.648 1.295-2.128 0.192-0.448 0.16-0.752 0.368-0.816 0.512-0.208 1.247 0.624 1.039 0.944 0.016 0.048-0.704 1.088-0.991 1.984-0.192 0.592 0.288 0.608 0.608 0.448 0.080-0.032 0.352-0.192 0.511-0.32zM86.791 17.542c0.208 0.368 0.192 0.832-0.048 1.072-0.272 0.256-0.592 0.352-0.863 0.336-0.32-0.016-0.576-0.16-0.592-0.4-0.016-0.256 0.24-0.368 0.576-0.432 0.192-0.032 0.048-0.304-0.272-0.352-0.368-0.048-0.576 0.016-0.672 0.064-0.4 0.192-0.48 0.512-0.432 0.704 0.032 0.112 0.080 0.304 0.512 0.624 0.656 0.48 0.959 0.784 1.055 1.072 0.224 0.704-0.496 1.504-1.727 1.6-0.847 0.064-1.982-0.256-2.254-1.28-0.128-0.464 0-0.848 0.256-1.104 0.176-0.176 0.368-0.224 0.496-0.224 0.224 0 0.4 0.16 0.416 0.4 0.016 0.080 0 0.192-0.016 0.256-0.336 0.544 0.336 0.944 0.943 0.864 0.336-0.048 0.528-0.176 0.48-0.448-0.016-0.112-0.048-0.224-0.432-0.496-0.48-0.336-0.959-0.752-1.055-1.152-0.144-0.832 0.672-1.488 1.231-1.68 1.183-0.336 2.046 0.032 2.398 0.576z"></path>
<path d="M0.154 20.086c-0.048-0.432 0.16-0.688 0.608-0.768 0.416-0.016 0.639 0.16 0.671 0.512 0.064 1.152 2.19 1.36 3.581 0.704 1.071-0.56 1.759-1.28 1.807-2.32 0-0.48-0.144-0.736-0.448-0.864 0.032 0.016-0.592-0.208-0.703-0.256-0.272-0.112-0.352-0.496-0.016-0.656l0.144-0.048c1.567-0.528 2.19-1.232 2.19-1.872 0.016-0.24-0.032-0.816-0.927-1.008-0.080 0-0.256 0-0.352 0.144-0.24 0.4-0.464 0.752-0.703 1.104-0.432 0.672-0.847 1.376-1.407 2.368-0.767 1.296-0.975 1.744-1.151 2.112-0.096 0.192-0.144 0.32-0.24 0.464-0.24 0.368-1.455-0.224-1.183-0.768 0.192-0.336 0.288-0.416 0.448-0.656 0.192-0.32 0.48-0.752 0.943-1.52 0.687-1.072 1.567-2.576 1.567-2.608 0.208-0.368 0.080-0.384-0.144-0.304-0.528 0.208-0.735 0.368-1.023 0.608-0.080 0.096-0.208 0.208-0.352 0.336-0.48 0.336-1.039-0.416-0.32-1.072 0.783-0.704 1.535-1.040 2.782-1.184 1.886-0.224 3.309 0.512 3.229 2.064-0.032 0.624-0.576 1.408-1.311 1.856-0.24 0.144-0.304 0.192-0.4 0.24 0.352 0.16 0.735 0.448 0.767 1.296 0.048 1.44-0.943 2.8-2.67 3.6-2.014 0.944-5.292 0.432-5.388-1.504zM13.117 18.71c0.448-0.336 1.055-0.304 0.592 0.4-0.176 0.272-0.703 0.96-1.071 1.312-1.807 1.728-3.437 1.712-4.045 0.832-0.687-1.008 0.16-2.896 1.215-4.704 0.863-1.472 2.798-4.192 3.741-4.064 0.879 0.144 1.535 2.64 0.687 3.264-0.831 0.624-3.981 2.656-4.205 3.2-0.448 0.8-0.512 1.312-0.208 1.552 0.416 0.336 1.503-0.176 2.126-0.656 0.464-0.352 0.863-0.768 1.167-1.136zM13.405 13.782c-1.295 1.216-2.59 3.296-2.59 3.376 0 0.096 2.59-1.696 2.718-2.080 0.192-0.528-0.032-0.928-0.128-1.296zM17.199 20.326c0.895-0.592 0.927 0.464 0.208 0.944-0.352 0.256-0.576 0.384-0.943 0.496-0.448 0.128-0.895 0.048-1.167-0.144-0.176-0.128-0.272-0.32-0.288-0.464-0.256 0.336-0.895 0.832-1.823 0.656-1.167-0.224-1.135-1.648-0.879-2.32 0.735-1.888 2.078-2.4 2.558-2.528 0.863-0.224 1.519 0.096 1.679 0.24 0.592 0.528 0.096 1.52-0.576 1.184-0.4-0.208-0.432-0.576-1.199-0.24-0.256 0.112-0.943 0.656-1.167 1.344-0.128 0.384-0.272 1.072 0.24 1.216 0.272 0.080 0.687 0 1.311-0.752 0.304-0.368 0.4-0.864 0.496-0.992 0.368-0.592 1.439 0.016 1.247 0.4-0.016 0.048-0.144 0.192-0.368 0.528-0.208 0.288-0.32 0.704-0.128 0.768 0.144 0.048 0.48-0.128 0.799-0.336zM21.925 17.478c0.272 0.848-0.847 1.52-0.847 0.944-0.032-0.32-0.224-0.368-0.528-0.368-0.56 0-1.119 0.432-1.487 1.056-0.352 0.592-0.368 1.184-0.032 1.472 0.24 0.208 1.039 0.272 1.711-0.080 0.703-0.368 1.055-0.8 1.215-0.832 0.24-0.048 0.56 0.32 0.464 0.56s-0.927 0.976-1.679 1.312c-0.847 0.384-2.174 0.48-2.718 0.032-0.56-0.448-0.863-1.248-0.128-2.688 1.231-2.064 2.91-2.128 3.485-1.92 0.32 0.112 0.464 0.288 0.544 0.512zM21.541 21.478c-0.336-0.752 0.703-3.168 1.759-4.976 0.863-1.472 2.878-4.16 3.709-4.032 0.879 0.144 1.471 2.608 0.624 3.232-0.911 0.64-1.663 1.152-2.27 1.568 0.496-0.208 1.055-0.336 1.471 0.112 0.448 0.48 0.24 1.184 0.032 1.504-0.416 0.64-1.519 1.2-2.222 1.104-0.192 0.544 0 0.848 0.624 0.8 0.576-0.048 1.423-0.688 1.998-1.28 0.224-0.24 0.975 0.128 0.48 0.656-0.176 0.192-0.72 0.72-1.183 1.072-0.432 0.336-1.599 0.928-2.542 0.464-0.656-0.32-0.703-1.088-0.496-1.728 0.272-0.72 2.59-0.784 2.254-1.696-0.304-0.848-1.775 0.016-2.638 1.264-0.304 0.736-0.576 1.648-0.672 2.144-0.288 0.416-0.831-0.032-0.927-0.208zM24.211 17.11c0 0.096 2.59-1.696 2.718-2.080 0.192-0.528-0.032-0.928-0.128-1.296-1.295 1.216-2.59 3.296-2.59 3.376z"></path>
<path d="M45.025 8.175c-0.501-0.030-1.033-0.105-1.598-0.224-0.921-0.196-1.623-0.556-1.545-1.639 0.151-2.108 1.118-3.907 2.603-5.341 0.34-0.329 0.83-0.184 1.154 0.084 1.329 1.097 2.185 2.396 2.57 3.898 0.187 0.727-0.526 1.196-1.147 0.828-0.122-0.073-0.229-0.293-0.267-0.428-0.293-1.070-0.861-2.001-1.703-2.793-0.004-0.004-0.009-0.007-0.014-0.009s-0.011-0.003-0.016-0.003c-0.005 0-0.011 0.002-0.016 0.004s-0.010 0.006-0.013 0.010c-0.922 1.047-1.561 2.302-1.658 3.681-0.011 0.147 0.057 0.231 0.203 0.251 0.944 0.131 1.876 0.257 2.796 0.378 0.6 0.080 1.458 0.378 1.516 1.050 0.084 0.973-0.745 1.332-1.542 1.549-0.449 0.123-0.86 0.211-1.233 0.264-0.106 0.015-0.106 0.032 0 0.049 0.331 0.052 0.651 0.119 0.959 0.201 0.853 0.227 0.936 1.035 0.505 1.678-0.235 0.348-0.54 0.705-0.916 1.069-0.145 0.141-0.284 0.25-0.418 0.326-0.389 0.223-0.905 0.044-1.053-0.389-0.212-0.619 0.365-0.945 0.728-1.326 0.047-0.048 0.037-0.077-0.030-0.086-0.555-0.070-1.143-0.17-1.645-0.452-0.678-0.382-0.809-1.275-0.224-1.806 0.472-0.43 1.338-0.584 2.009-0.728 0.234-0.050 0.232-0.082-0.007-0.096z"></path>
<path d="M40.778 11.479c0.541-0.499 1.657-1.21 2.175-0.2 0.311 0.61 0.298 1.532 0.243 2.215-0.074 0.937-1.407 0.998-1.464 0.039-0.017-0.292-0.012-0.59 0.016-0.896 0.005-0.060-0.015-0.069-0.059-0.029-0.366 0.341-0.786 0.612-1.261 0.812-0.465 0.197-0.882 0.169-1.252-0.085-0.708-0.486-0.447-1.335-0.094-1.984 0.226-0.418 0.459-0.77 0.698-1.057 0.001-0.002 0.001-0.003 0-0.004l-0.020-0.025c-0.008-0.011-0.017-0.011-0.027-0.002-0.71 0.612-1.329 1.057-1.855 1.337-0.596 0.316-1.227 0.344-1.725-0.172-1.447-1.503-2.076-3.615-2.064-5.687 0.003-0.453 0.225-0.713 0.666-0.778 1.628-0.242 3.4 0.051 4.843 0.922 0.168 0.102 0.272 0.247 0.313 0.435 0.151 0.697-0.532 1.165-1.137 0.799-0.84-0.507-1.827-0.757-2.961-0.752-0.052 0.001-0.105-0.004-0.157-0.015-0.044-0.009-0.064 0.009-0.061 0.053 0.078 1.149 0.375 2.16 0.89 3.032 0.182 0.31 0.393 0.586 0.632 0.827 0.032 0.032 0.068 0.037 0.108 0.013 0.355-0.212 0.652-0.417 0.89-0.616 0.689-0.575 1.267-1.019 1.732-1.332 0.402-0.271 0.972-0.455 1.49-0.206 0.469 0.225 0.593 0.88 0.466 1.338-0.209 0.749-0.648 1.344-1.055 1.993-0.054 0.086-0.044 0.094 0.030 0.025z"></path>
<path d="M49.364 11.688c0.492 0.555 1.211 1.662 0.194 2.179-0.61 0.31-1.486 0.29-2.175 0.247-1.040-0.063-1.045-1.524 0.114-1.482 0.229 0.008 0.46 0.015 0.693 0.021 0.055 0.002 0.064-0.019 0.028-0.061-0.33-0.377-0.59-0.78-0.779-1.207-0.204-0.465-0.192-0.882 0.035-1.251 0.717-1.16 2.378 0.019 3.078 0.538 0.003 0.002 0.007 0.004 0.012 0.003s0.008-0.002 0.011-0.005 0.005-0.007 0.005-0.011c0-0.004-0.001-0.008-0.004-0.011-0.32-0.393-0.616-0.772-0.888-1.137-0.27-0.364-0.469-0.734-0.6-1.111-0.174-0.507-0.052-0.989 0.343-1.362 1.538-1.451 3.635-2.064 5.724-2.042 0.481 0.005 0.701 0.371 0.747 0.799 0.176 1.639-0.105 3.559-1.079 4.878-0.022 0.029-0.050 0.053-0.082 0.069-0.495 0.233-1.037 0.058-1.14-0.522-0.031-0.171 0.001-0.336 0.097-0.493 0.545-0.897 0.802-1.955 0.77-3.175-0.001-0.043-0.022-0.062-0.065-0.057-1.472 0.168-2.701 0.52-3.82 1.51-0.043 0.038-0.050 0.082-0.020 0.131 0.152 0.246 0.304 0.467 0.456 0.663 0.397 0.515 0.795 1.027 1.194 1.537s0.808 1.2 0.534 1.853c-0.215 0.513-0.883 0.668-1.374 0.525-0.733-0.215-1.34-0.635-1.981-1.055-0.081-0.053-0.090-0.044-0.025 0.029z"></path>
<path d="M37.341 15.75c-0.030-0.123-0.050-0.121-0.061 0.005-0.056 0.678-0.159 1.33-0.309 1.956-0.191 0.801-0.654 1.312-1.549 1.253-2.097-0.138-3.848-1.092-5.325-2.568-0.407-0.408-0.172-0.934 0.142-1.302 1.086-1.271 2.363-2.095 3.83-2.47 0.348-0.090 0.772 0.080 0.888 0.439 0.137 0.424-0.032 0.85-0.478 0.971-1.056 0.285-1.993 0.852-2.81 1.701-0.034 0.035-0.032 0.068 0.005 0.099 1.101 0.925 2.327 1.558 3.76 1.642 0.040 0.002 0.066-0.015 0.080-0.052 0.065-0.171 0.11-0.353 0.136-0.544 0.090-0.669 0.171-1.316 0.242-1.941 0.070-0.617 0.208-1.489 0.755-1.853 0.473-0.318 1.161-0.102 1.462 0.352 0.415 0.629 0.617 1.554 0.706 2.262 0.018 0.141 0.038 0.142 0.062 0.001 0.052-0.307 0.115-0.605 0.186-0.895 0.215-0.87 1.014-0.99 1.678-0.552 0.437 0.289 0.869 0.679 1.293 1.17 0.293 0.337 0.287 0.944-0.151 1.17-0.683 0.35-1.040-0.274-1.454-0.676-0.048-0.047-0.076-0.037-0.083 0.029-0.072 0.667-0.231 1.63-0.799 2.035-0.509 0.364-1.181 0.251-1.537-0.252-0.389-0.55-0.51-1.319-0.667-1.979z"></path>
<path d="M52.643 16.090c0.040-0.557 0.12-1.136 0.238-1.737 0.195-0.989 0.601-1.647 1.725-1.554 2.080 0.173 3.808 1.125 5.256 2.595 0.304 0.308 0.208 0.76-0.040 1.081-1.049 1.358-2.378 2.246-3.987 2.665-0.175 0.046-0.361 0.017-0.557-0.086-0.154-0.081-0.258-0.207-0.311-0.378-0.124-0.399 0.041-0.841 0.476-0.953 1.045-0.27 1.983-0.835 2.815-1.695 0.035-0.036 0.033-0.069-0.005-0.101-1.036-0.897-2.323-1.576-3.696-1.638-0.115-0.006-0.182 0.049-0.2 0.162-0.128 0.796-0.24 1.618-0.334 2.465-0.035 0.312-0.1 0.627-0.195 0.944-0.245 0.815-0.936 1.265-1.722 0.738-0.624-0.418-0.914-1.864-0.987-2.536-0.017-0.153-0.039-0.154-0.065-0.002-0.050 0.286-0.109 0.571-0.176 0.856-0.211 0.883-0.991 1.038-1.67 0.595-0.436-0.284-0.87-0.674-1.301-1.17-0.338-0.389-0.28-1.027 0.234-1.227 0.625-0.244 0.981 0.347 1.359 0.721 0.048 0.048 0.076 0.038 0.084-0.029 0.078-0.615 0.219-1.613 0.767-2.006 0.696-0.503 1.462-0.176 1.772 0.569 0.224 0.535 0.375 1.114 0.455 1.738 0.001 0.005 0.004 0.007 0.008 0.006l0.034-0.001c0.016-0.001 0.024-0.009 0.025-0.025z"></path>
<path d="M48.232 19.156c0.396-0.364 0.832-0.642 1.307-0.833 0.445-0.179 0.844-0.149 1.198 0.088 0.67 0.451 0.504 1.253 0.174 1.873-0.236 0.443-0.471 0.82-0.706 1.131-0.076 0.1-0.064 0.111 0.034 0.032 0.329-0.265 0.684-0.54 1.067-0.825 0.733-0.544 1.725-1.088 2.494-0.268 0.748 0.798 1.283 1.716 1.606 2.756 0.296 0.954 0.44 1.941 0.435 2.959-0.002 0.485-0.379 0.715-0.813 0.76-1.659 0.17-3.408-0.112-4.776-1.017-0.103-0.068-0.174-0.164-0.212-0.286-0.213-0.686 0.441-1.291 1.084-0.901 0.894 0.541 1.946 0.796 3.157 0.765 0.044-0.001 0.064-0.024 0.058-0.068-0.030-0.244-0.063-0.493-0.099-0.746-0.17-1.166-0.636-2.189-1.399-3.068-0.020-0.024-0.049-0.039-0.080-0.043s-0.062 0.004-0.088 0.021c-0.631 0.432-1.254 0.904-1.87 1.416-0.504 0.419-0.967 0.691-1.39 0.817-0.455 0.136-1.022-0.045-1.224-0.522-0.407-0.964 0.507-2.161 1.014-2.916 0.008-0.012 0.007-0.023-0.005-0.033l-0.024-0.019c-0.003-0.003-0.006-0.003-0.009 0-0.311 0.35-0.679 0.588-1.105 0.715-0.658 0.196-1.114-0.273-1.238-0.875-0.112-0.541-0.143-1.14-0.093-1.795 0.076-1.013 1.508-1 1.48 0.103-0.007 0.254-0.015 0.506-0.025 0.756-0.002 0.047 0.014 0.055 0.048 0.023z"></path>
<path d="M40.566 20.063c-0.24-0.265-0.429-0.538-0.569-0.818-0.406-0.816 0.101-1.395 0.902-1.535 0.505-0.087 1.049-0.11 1.634-0.068 1.009 0.073 1.054 1.434 0.051 1.474-0.292 0.011-0.584 0.004-0.876-0.021-0.050-0.004-0.058 0.012-0.024 0.049 0.331 0.354 0.599 0.762 0.804 1.225 0.362 0.819-0.010 1.782-1.007 1.747-0.649-0.024-1.512-0.593-2.034-0.983-0.12-0.090-0.133-0.077-0.039 0.040 0.528 0.655 1.083 1.309 1.396 2.074 0.23 0.56 0.109 1.090-0.348 1.508-0.362 0.33-0.716 0.601-1.063 0.815-1.264 0.776-2.771 1.175-4.52 1.195-0.484 0.006-0.759-0.221-0.822-0.681-0.229-1.656 0.054-3.401 0.916-4.821 0.099-0.163 0.22-0.264 0.362-0.303 0.755-0.205 1.264 0.469 0.873 1.125-0.53 0.89-0.777 1.931-0.741 3.124 0.001 0.042 0.023 0.060 0.064 0.055 0.316-0.039 0.625-0.084 0.929-0.137 0.991-0.172 1.869-0.557 2.634-1.156 0.095-0.074 0.183-0.154 0.263-0.24 0.032-0.034 0.035-0.070 0.011-0.109-0.192-0.32-0.406-0.625-0.642-0.915-0.53-0.651-0.957-1.213-1.283-1.686-0.517-0.752-0.544-1.891 0.612-2.011 0.834-0.088 1.82 0.652 2.488 1.087 0.092 0.060 0.101 0.049 0.028-0.033z"></path>
<path d="M44.947 23.585c0.821 0.057 1.533 0.187 2.134 0.388 0.786 0.262 1.020 0.805 0.958 1.589-0.161 2.028-1.118 3.753-2.567 5.201-0.182 0.182-0.39 0.248-0.625 0.198-0.223-0.047-0.424-0.145-0.603-0.295-1.289-1.073-2.131-2.354-2.523-3.842-0.099-0.376 0.049-0.813 0.447-0.936 0.384-0.119 0.817 0.027 0.936 0.446 0.317 1.127 0.895 2.082 1.732 2.864 0.004 0.004 0.010 0.007 0.016 0.009s0.012 0.003 0.018 0.003c0.006-0 0.012-0.002 0.017-0.005s0.011-0.006 0.015-0.011c0.925-1.075 1.58-2.345 1.656-3.776 0.002-0.040-0.015-0.067-0.051-0.083-0.176-0.074-0.369-0.123-0.579-0.147-1.121-0.124-2.001-0.243-2.64-0.359-0.87-0.158-1.645-0.802-1.079-1.756 0.395-0.665 1.841-0.947 2.554-1.042 0.173-0.024 0.173-0.047 0-0.070-0.883-0.121-1.97-0.303-1.589-1.539 0.062-0.199 0.233-0.459 0.512-0.782 0.306-0.352 0.6-0.642 0.882-0.87 0.386-0.312 1.012-0.173 1.174 0.336 0.194 0.612-0.378 0.931-0.739 1.312-0.044 0.047-0.035 0.074 0.029 0.082 0.619 0.076 1.704 0.232 2.055 0.834 0.316 0.541 0.252 1.018-0.19 1.432s-1.338 0.578-1.957 0.715c-0.237 0.053-0.235 0.087 0.007 0.104z"></path>
</symbol>
<symbol id="icon-header-logo-first" viewBox="0 0 93 32">
<path d="M0.022 25.443c-0.16-1.442 0.534-2.297 2.028-2.564 1.388-0.053 2.135 0.534 2.242 1.709 0.214 3.846 7.313 4.541 11.956 2.35 3.576-1.87 5.871-4.274 6.032-7.746 0-1.603-0.481-2.457-1.495-2.885 0.107 0.053-1.975-0.694-2.348-0.855-0.908-0.374-1.175-1.656-0.053-2.19l0.481-0.16c5.23-1.763 7.312-4.113 7.312-6.25 0.053-0.801-0.107-2.724-3.096-3.365-0.267 0-0.854 0-1.174 0.481-0.801 1.335-1.548 2.511-2.349 3.686-1.441 2.244-2.829 4.594-4.697 7.906-2.562 4.327-3.256 5.823-3.843 7.051-0.321 0.641-0.481 1.068-0.801 1.549-0.801 1.229-4.857-0.748-3.95-2.564 0.641-1.122 0.96-1.389 1.495-2.19 0.64-1.068 1.601-2.511 3.149-5.075 2.295-3.579 5.231-8.601 5.231-8.707 0.694-1.229 0.267-1.282-0.481-1.015-1.761 0.694-2.455 1.229-3.416 2.030-0.267 0.321-0.694 0.694-1.174 1.122-1.602 1.122-3.47-1.389-1.068-3.579 2.615-2.35 5.125-3.472 9.288-3.953 6.298-0.748 11.049 1.709 10.782 6.891-0.107 2.083-1.921 4.701-4.377 6.197-0.801 0.481-1.014 0.641-1.334 0.801 1.174 0.534 2.455 1.496 2.562 4.327 0.16 4.808-3.149 9.348-8.914 12.019-6.726 3.152-17.668 1.442-17.988-5.021zM43.303 20.849c1.495-1.122 3.524-1.015 1.975 1.335-0.588 0.908-2.349 3.205-3.576 4.38-6.031 5.769-11.476 5.716-13.505 2.778-2.295-3.365 0.534-9.669 4.057-15.705 2.883-4.915 9.341-13.996 12.491-13.569 2.935 0.481 5.124 8.814 2.295 10.898-2.776 2.083-13.291 8.868-14.038 10.684-1.495 2.671-1.708 4.38-0.694 5.182 1.388 1.122 5.018-0.588 7.099-2.19 1.548-1.175 2.882-2.564 3.896-3.793zM44.265 4.395c-4.324 4.060-8.648 11.004-8.648 11.272 0 0.321 8.647-5.662 9.074-6.945 0.641-1.763-0.107-3.098-0.427-4.327zM56.931 26.244c2.989-1.977 3.096 1.549 0.694 3.152-1.174 0.855-1.922 1.282-3.149 1.656-1.495 0.427-2.989 0.16-3.897-0.481-0.587-0.427-0.907-1.068-0.961-1.549-0.854 1.122-2.989 2.778-6.085 2.19-3.896-0.748-3.79-5.502-2.936-7.746 2.456-6.304 6.939-8.013 8.54-8.44 2.883-0.748 5.071 0.321 5.605 0.801 1.975 1.763 0.321 5.075-1.922 3.953-1.334-0.694-1.441-1.923-4.003-0.801-0.854 0.374-3.149 2.19-3.896 4.487-0.427 1.282-0.908 3.579 0.801 4.060 0.907 0.267 2.295 0 4.377-2.511 1.014-1.229 1.334-2.885 1.655-3.312 1.228-1.977 4.803 0.053 4.163 1.335-0.053 0.16-0.48 0.641-1.228 1.763-0.694 0.962-1.067 2.35-0.427 2.564 0.48 0.16 1.601-0.427 2.669-1.122zM72.71 16.735c0.908 2.831-2.829 5.075-2.829 3.152-0.106-1.068-0.747-1.229-1.761-1.229-1.868 0-3.736 1.442-4.964 3.526-1.174 1.977-1.228 3.953-0.106 4.915 0.8 0.694 3.469 0.908 5.711-0.267 2.349-1.229 3.523-2.671 4.057-2.778 0.801-0.16 1.868 1.068 1.548 1.87s-3.096 3.259-5.605 4.38c-2.829 1.282-7.259 1.603-9.074 0.107-1.869-1.496-2.883-4.167-0.427-8.974 4.11-6.891 9.715-7.105 11.636-6.41 1.067 0.374 1.548 0.962 1.815 1.709zM71.429 30.090c-1.121-2.511 2.349-10.577 5.871-16.614 2.883-4.915 9.608-13.889 12.384-13.462 2.935 0.481 4.91 8.707 2.082 10.791-3.043 2.137-5.551 3.846-7.58 5.235 1.655-0.694 3.523-1.122 4.911 0.374 1.494 1.603 0.8 3.953 0.107 5.021-1.388 2.137-5.071 4.006-7.419 3.686-0.641 1.816 0 2.831 2.081 2.671 1.922-0.16 4.751-2.297 6.673-4.274 0.747-0.801 3.256 0.427 1.601 2.19-0.587 0.641-2.402 2.404-3.95 3.579-1.441 1.122-5.338 3.098-8.487 1.549-2.189-1.068-2.349-3.633-1.655-5.769 0.908-2.404 8.647-2.618 7.526-5.663-1.014-2.831-5.925 0.053-8.807 4.22-1.014 2.457-1.921 5.502-2.242 7.158-0.96 1.389-2.775-0.107-3.096-0.694zM80.343 15.507c0 0.321 8.647-5.662 9.074-6.945 0.641-1.763-0.107-3.098-0.427-4.327-4.324 4.060-8.647 11.004-8.647 11.272z"></path>
</symbol>
<symbol id="icon-header-logo-second" viewBox="0 0 32 32">
<path d="M16.049 7.835c-0.53-0.032-1.095-0.111-1.693-0.238-0.976-0.208-1.72-0.59-1.637-1.737 0.16-2.234 1.185-4.14 2.758-5.66 0.361-0.348 0.879-0.195 1.223 0.089 1.408 1.162 2.316 2.539 2.723 4.131 0.198 0.771-0.557 1.268-1.215 0.877-0.13-0.077-0.243-0.311-0.282-0.453-0.31-1.134-0.912-2.12-1.805-2.959-0.008-0.008-0.019-0.013-0.031-0.013-0.001 0-0.001 0-0.002 0h0c-0.006 0-0.012 0.002-0.017 0.004l0-0c-0.005 0.003-0.010 0.006-0.014 0.011l-0 0c-0.977 1.11-1.654 2.439-1.757 3.901-0.011 0.156 0.061 0.245 0.215 0.266 1 0.139 1.988 0.272 2.963 0.401 0.635 0.085 1.545 0.401 1.607 1.112 0.088 1.032-0.789 1.412-1.634 1.642-0.476 0.13-0.911 0.223-1.307 0.28-0.112 0.016-0.112 0.034 0 0.052 0.351 0.055 0.69 0.126 1.017 0.213 0.904 0.24 0.992 1.097 0.535 1.778-0.249 0.369-0.573 0.747-0.971 1.133-0.154 0.15-0.301 0.265-0.443 0.346-0.412 0.236-0.959 0.046-1.116-0.412-0.224-0.656 0.387-1.002 0.771-1.405 0.050-0.051 0.039-0.082-0.032-0.091-0.588-0.075-1.212-0.18-1.743-0.479-0.719-0.405-0.857-1.351-0.237-1.914 0.501-0.456 1.418-0.619 2.129-0.772 0.248-0.053 0.246-0.087-0.008-0.102zM11.549 11.337c0.574-0.529 1.756-1.282 2.305-0.212 0.33 0.646 0.315 1.624 0.258 2.347-0.078 0.993-1.491 1.057-1.552 0.041-0.007-0.108-0.010-0.235-0.010-0.363 0-0.207 0.010-0.411 0.029-0.612l-0.002 0.026c0.005-0.063-0.016-0.074-0.063-0.031-0.388 0.361-0.833 0.648-1.336 0.861-0.493 0.209-0.935 0.179-1.327-0.090-0.751-0.515-0.474-1.414-0.1-2.103 0.24-0.443 0.486-0.816 0.739-1.12 0.001-0.002 0.001-0.003 0-0.004l-0.021-0.027c-0.008-0.011-0.018-0.012-0.028-0.003-0.753 0.648-1.408 1.12-1.966 1.417-0.632 0.335-1.3 0.365-1.828-0.182-1.534-1.593-2.2-3.83-2.187-6.027 0.004-0.481 0.239-0.755 0.706-0.825 1.725-0.257 3.603 0.054 5.133 0.978 0.178 0.108 0.289 0.262 0.331 0.461 0.16 0.739-0.563 1.234-1.205 0.846-0.89-0.537-1.936-0.802-3.138-0.796-0.004 0-0.008 0-0.012 0-0.055 0-0.108-0.006-0.16-0.016l0.005 0.001c-0.046-0.010-0.068 0.009-0.064 0.056 0.083 1.218 0.398 2.288 0.944 3.213 0.196 0.333 0.417 0.62 0.67 0.876l-0-0c0.034 0.034 0.072 0.039 0.114 0.014 0.376-0.224 0.691-0.442 0.943-0.653 0.731-0.61 1.342-1.080 1.835-1.412 0.426-0.288 1.029-0.482 1.579-0.218 0.497 0.239 0.629 0.933 0.494 1.418-0.222 0.794-0.686 1.425-1.118 2.112-0.057 0.091-0.047 0.1 0.032 0.027zM20.648 11.559c0.521 0.588 1.283 1.761 0.205 2.31-0.647 0.329-1.575 0.307-2.305 0.262-1.102-0.067-1.108-1.615 0.121-1.571 0.243 0.008 0.488 0.016 0.734 0.022 0.058 0.002 0.068-0.020 0.029-0.064-0.35-0.4-0.625-0.826-0.825-1.279-0.216-0.492-0.204-0.934 0.037-1.326 0.76-1.229 2.52 0.021 3.261 0.57 0.003 0.002 0.007 0.003 0.011 0.003 0.001 0 0.001-0 0.002-0h-0c0.005-0 0.009-0.002 0.012-0.005v0c0.003-0.003 0.005-0.007 0.005-0.011v0c0-0.004-0.002-0.008-0.005-0.011v0c-0.271-0.327-0.579-0.719-0.879-1.118l-0.062-0.086c-0.286-0.385-0.497-0.778-0.635-1.178-0.185-0.537-0.055-1.048 0.363-1.444 1.63-1.538 3.852-2.188 6.066-2.164 0.51 0.005 0.743 0.393 0.792 0.846 0.186 1.737-0.112 3.771-1.144 5.169-0.023 0.031-0.052 0.056-0.086 0.073l-0.001 0.001c-0.525 0.247-1.099 0.062-1.208-0.554-0.033-0.182 0.002-0.356 0.103-0.523 0.577-0.951 0.849-2.072 0.816-3.364-0.001-0.045-0.024-0.066-0.069-0.061-1.56 0.179-2.862 0.551-4.048 1.601-0.046 0.040-0.054 0.086-0.022 0.139 0.166 0.272 0.326 0.501 0.496 0.721l-0.014-0.018c0.948 1.247 1.363 1.777 1.779 2.306l-0.514-0.677c0.422 0.541 0.856 1.272 0.566 1.964-0.227 0.543-0.936 0.708-1.456 0.556-0.776-0.227-1.42-0.673-2.1-1.117-0.086-0.057-0.095-0.046-0.027 0.031zM7.906 15.863c-0.032-0.13-0.053-0.129-0.064 0.005-0.059 0.718-0.168 1.41-0.327 2.073-0.203 0.849-0.693 1.39-1.641 1.328-2.222-0.146-4.078-1.157-5.644-2.722-0.431-0.433-0.182-0.99 0.15-1.38 1.151-1.347 2.504-2.22 4.059-2.618 0.368-0.095 0.818 0.085 0.941 0.465 0.145 0.45-0.033 0.901-0.507 1.029-1.119 0.302-2.112 0.903-2.978 1.802-0.036 0.037-0.034 0.072 0.005 0.105 1.167 0.98 2.466 1.65 3.985 1.74 0.042 0.003 0.070-0.016 0.085-0.055 0.069-0.182 0.117-0.374 0.144-0.577 0.039-0.188 0.13-0.892 0.213-1.598l0.044-0.458c0.074-0.654 0.221-1.577 0.8-1.964 0.502-0.337 1.231-0.108 1.549 0.373 0.44 0.667 0.655 1.647 0.748 2.397 0.019 0.15 0.041 0.15 0.066 0.001 0.056-0.325 0.122-0.641 0.198-0.948 0.227-0.922 1.074-1.050 1.778-0.585 0.463 0.307 0.92 0.72 1.371 1.24 0.31 0.357 0.304 1.001-0.161 1.239-0.724 0.371-1.102-0.29-1.54-0.717-0.051-0.050-0.081-0.039-0.088 0.031-0.076 0.707-0.245 1.728-0.847 2.157-0.539 0.385-1.251 0.266-1.629-0.267-0.412-0.583-0.54-1.398-0.707-2.098zM24.122 16.223c0.043-0.59 0.127-1.204 0.252-1.841 0.207-1.048 0.637-1.746 1.828-1.647 2.204 0.184 4.035 1.192 5.57 2.75 0.322 0.326 0.221 0.805-0.042 1.146-1.111 1.439-2.52 2.38-4.225 2.825-0.186 0.049-0.383 0.018-0.59-0.091-0.164-0.086-0.273-0.219-0.33-0.401-0.131-0.423 0.044-0.892 0.504-1.010 1.107-0.286 2.102-0.885 2.983-1.796 0.037-0.038 0.035-0.073-0.005-0.107-1.098-0.951-2.462-1.67-3.917-1.735-0.122-0.006-0.193 0.051-0.212 0.172-0.104 0.572-0.229 1.465-0.331 2.365l-0.023 0.248c-0.043 0.375-0.116 0.714-0.217 1.041l0.011-0.040c-0.259 0.863-0.992 1.341-1.825 0.782-0.661-0.443-0.969-1.976-1.046-2.687-0.018-0.162-0.041-0.163-0.069-0.003-0.070 0.406-0.135 0.713-0.209 1.016l0.022-0.109c-0.223 0.935-1.050 1.1-1.77 0.631-0.462-0.301-0.921-0.715-1.378-1.24-0.358-0.412-0.297-1.088 0.248-1.3 0.662-0.258 1.040 0.367 1.44 0.764 0.051 0.051 0.080 0.040 0.088-0.031 0.082-0.651 0.232-1.71 0.813-2.126 0.738-0.533 1.549-0.186 1.878 0.602 0.237 0.567 0.398 1.181 0.483 1.842 0.001 0.005 0.004 0.007 0.009 0.006l0.036-0.001c0.017-0.001 0.026-0.010 0.027-0.027zM19.448 19.473c0.42-0.386 0.882-0.68 1.385-0.883 0.472-0.189 0.895-0.158 1.269 0.094 0.71 0.478 0.534 1.328 0.185 1.985-0.25 0.469-0.499 0.869-0.748 1.198-0.080 0.106-0.068 0.117 0.036 0.033 0.292-0.238 0.66-0.525 1.033-0.805l0.098-0.070c0.776-0.577 1.828-1.154 2.643-0.284 0.792 0.845 1.36 1.819 1.702 2.921 0.313 1.011 0.467 2.057 0.461 3.135-0.002 0.514-0.401 0.758-0.861 0.805-1.758 0.18-3.612-0.118-5.061-1.078-0.107-0.071-0.186-0.176-0.223-0.299l-0.001-0.004c-0.226-0.727 0.467-1.368 1.149-0.954 0.947 0.573 2.063 0.843 3.346 0.81 0.047-0.001 0.068-0.025 0.062-0.072-0.054-0.461-0.091-0.731-0.131-1l0.026 0.21c-0.18-1.236-0.674-2.32-1.482-3.251-0.025-0.029-0.061-0.047-0.101-0.047-0.028 0-0.055 0.009-0.076 0.024l0-0c-0.757 0.522-1.402 1.015-2.025 1.535l0.043-0.035c-0.534 0.444-1.025 0.732-1.473 0.866-0.483 0.144-1.083-0.047-1.297-0.554-0.432-1.021 0.538-2.29 1.074-3.091 0.008-0.013 0.007-0.024-0.005-0.035l-0.026-0.021c-0.004-0.003-0.007-0.003-0.010 0-0.329 0.371-0.72 0.623-1.171 0.758-0.697 0.208-1.181-0.289-1.312-0.927-0.118-0.574-0.151-1.208-0.099-1.902 0.081-1.074 1.598-1.060 1.568 0.109-0.009 0.348-0.019 0.628-0.031 0.907l0.004-0.106c-0.002 0.050 0.015 0.058 0.051 0.024zM11.324 20.433c-0.254-0.281-0.455-0.57-0.603-0.867-0.43-0.865 0.107-1.479 0.956-1.626 0.535-0.093 1.112-0.116 1.731-0.072 1.069 0.077 1.117 1.52 0.054 1.562-0.309 0.012-0.618 0.005-0.928-0.022-0.053-0.004-0.061 0.013-0.026 0.051 0.351 0.375 0.635 0.808 0.852 1.299 0.384 0.868-0.010 1.888-1.066 1.851-0.688-0.026-1.602-0.628-2.155-1.042-0.128-0.096-0.141-0.082-0.041 0.042 0.56 0.694 1.147 1.387 1.48 2.198 0.244 0.593 0.115 1.155-0.368 1.598-0.383 0.349-0.759 0.637-1.127 0.863-1.34 0.823-2.937 1.245-4.79 1.266-0.513 0.006-0.804-0.235-0.872-0.722-0.242-1.755 0.058-3.604 0.97-5.109 0.105-0.173 0.233-0.28 0.384-0.321 0.8-0.217 1.34 0.497 0.925 1.192-0.561 0.943-0.823 2.046-0.785 3.31 0.002 0.044 0.024 0.064 0.068 0.058 0.334-0.041 0.663-0.090 0.984-0.145 1.050-0.182 1.981-0.591 2.792-1.225 0.101-0.078 0.194-0.163 0.278-0.254 0.033-0.036 0.037-0.074 0.012-0.116-0.223-0.369-0.447-0.685-0.692-0.985l0.012 0.015c-0.562-0.69-1.014-1.286-1.359-1.787-0.548-0.796-0.577-2.004 0.648-2.131 0.884-0.094 1.929 0.691 2.636 1.152 0.097 0.063 0.107 0.052 0.029-0.035zM15.967 24.166c0.87 0.061 1.624 0.198 2.262 0.411 0.833 0.277 1.081 0.853 1.015 1.684-0.171 2.149-1.185 3.977-2.72 5.512-0.192 0.193-0.413 0.262-0.662 0.209-0.247-0.053-0.463-0.162-0.641-0.314l0.002 0.002c-1.367-1.137-2.258-2.495-2.674-4.072-0.105-0.398 0.053-0.862 0.474-0.992 0.407-0.126 0.866 0.028 0.992 0.473 0.336 1.195 0.948 2.206 1.835 3.035 0.009 0.008 0.021 0.013 0.034 0.013 0.001 0 0.001 0 0.002-0h-0c0.013-0.001 0.025-0.007 0.034-0.016l0-0c0.98-1.14 1.675-2.486 1.754-4.001 0.002-0.042-0.016-0.071-0.054-0.087-0.187-0.079-0.391-0.131-0.614-0.155-1.188-0.131-2.12-0.258-2.798-0.38-0.922-0.167-1.743-0.85-1.144-1.861 0.418-0.705 1.951-1.003 2.707-1.105 0.183-0.025 0.183-0.050 0-0.074-0.935-0.129-2.088-0.321-1.684-1.631 0.066-0.211 0.247-0.487 0.543-0.828 0.324-0.373 0.636-0.681 0.934-0.922 0.409-0.33 1.073-0.184 1.244 0.356 0.205 0.649-0.401 0.986-0.783 1.39-0.047 0.050-0.037 0.079 0.031 0.087 0.656 0.081 1.806 0.245 2.178 0.884 0.335 0.573 0.267 1.079-0.201 1.517s-1.418 0.613-2.074 0.758c-0.251 0.056-0.249 0.092 0.008 0.111z"></path>
</symbol>
<symbol id="icon-header-logo-third" viewBox="0 0 86 32">
<path d="M4.768 31.038c-3.978 2.346-5.886 0.164-4.087-3.982 3.598-8.237 9.538-18.601 15.643-26.402 0.927-1.091 2.126-0.818 3.488 0.818 1.035 1.418 0.654 1.746-0.655 3.327-2.016 2.4-4.087 5.182-6.704 9.273-2.071 3.273-6.213 9.601-7.249 12.819 2.889-1.418 4.906-1.8 6.268-1.909 3.434-0.273 6.759-0.109 9.157 2.346 2.18 2.182-1.744 4.146-4.524 2.455-0.709-0.436-1.689-0.982-4.578-0.818-1.417 0.109-3.598 0.273-6.759 2.073zM23.79 21.547c1.090-2.073 2.998-4.091 5.287-5.564 2.235-1.309 4.633-1.691 6.813-1.091 3.325 0.982 4.47 5.128 2.508 9.164-0.981 1.964-2.453 3.928-4.252 5.237-3.216 2.291-6.922 3.055-9.538 1.418-2.289-1.527-2.671-5.564-0.818-9.164zM27.824 27.384c1.908 0.982 5.124-1.255 6.486-4.364 0.709-1.582 1.2-4.091-0.763-4.528-2.017-0.491-4.742 1.255-6.050 4.746-0.382 0.982-0.981 3.437 0.327 4.146zM56.422 4.528l-1.69 2.018c-1.035 1.309-2.071 2.618-2.997 3.928 0.818-0.109 1.853-0.218 3.434-0.327 0.818-0.109 1.417 0.327 0.709 1.964-0.218 0.491-1.090 2.018-2.998 1.909-1.908 0-2.78 0-3.543 0.055-2.289 3.546-3.761 6.546-4.197 7.637-1.199 3-1.853 4.528-0.654 5.509 1.58 1.309 7.086-2.946 9.484-5.509 1.526-1.146 2.562 0.927 0.763 3-0.49 0.546-1.363 1.691-2.671 2.727-6.486 5.128-10.356 4.8-11.936 2.182-2.344-3.928 0.981-9.437 4.252-15.11-0.218 0-0.545 0.055-0.873 0.109-0.817 0.109-1.308-0.982-1.090-1.909 0.164-0.655 0.436-1.255 1.036-1.364l3.053-0.491c2.78-4.528 6.486-9.382 8.176-9.219 0.926 0.164 3.161 1.2 1.744 2.891zM69.649 25.965c1.963-1.364 3.326 0.6 1.745 2.182l-0.545 0.6c-2.126 1.964-4.361 2.837-6.268 2.673-1.69-0.164-2.78-1.364-2.998-3.055-1.744 2.182-4.469 3.055-6.377 3.109-0.927 0-2.018-0.164-3.217-1.091-1.962-1.527-1.581-4.418-1.036-5.891 0.655-1.855 3.435-7.255 4.307-8.891 0.436-0.927 1.526-1.2 3.053 0 1.689 1.309 0.709 2.618-0.381 4.2-2.508 3.655-3.271 6.273-2.562 7.31 0.763 1.2 3.216-0.218 4.633-1.527 2.071-1.909 3.597-5.619 4.415-7.255 0.654-1.527 0.545-2.564 1.254-2.782 1.744-0.709 4.252 2.127 3.543 3.218 0.055 0.164-2.398 3.709-3.379 6.764-0.654 2.018 0.981 2.073 2.071 1.527 0.272-0.109 1.199-0.655 1.743-1.091zM85.778 16.856c0.709 1.255 0.654 2.837-0.163 3.655-0.927 0.873-2.017 1.2-2.943 1.146-1.090-0.055-1.962-0.546-2.017-1.364-0.055-0.873 0.818-1.255 1.962-1.473 0.654-0.109 0.164-1.036-0.927-1.2-1.254-0.164-1.962 0.055-2.289 0.218-1.363 0.655-1.635 1.746-1.472 2.4 0.109 0.382 0.272 1.036 1.744 2.127 2.235 1.636 3.271 2.673 3.597 3.655 0.763 2.4-1.689 5.128-5.886 5.455-2.889 0.218-6.759-0.873-7.685-4.364-0.436-1.582 0-2.891 0.872-3.764 0.6-0.6 1.254-0.764 1.689-0.764 0.763 0 1.363 0.546 1.417 1.364 0.055 0.273 0 0.655-0.055 0.873-1.144 1.855 1.145 3.218 3.216 2.946 1.144-0.164 1.798-0.6 1.635-1.527-0.055-0.382-0.164-0.764-1.472-1.691-1.635-1.146-3.27-2.564-3.597-3.928-0.49-2.837 2.289-5.073 4.197-5.728 4.033-1.146 6.977 0.109 8.176 1.964z"></path>
</symbol>
</defs>
</svg>
